<svg id="visual" viewBox="0 0 900 600" width="900" height="600" xmlns="http://www.w3.org/2000/svg" xmlns:xlink="http://www.w3.org/1999/xlink" version="1.1"><rect x="0" y="0" width="900" height="600" fill="#0f131a"></rect><defs><linearGradient id="grad1_0" x1="33.3%" y1="0%" x2="100%" y2="100%"><stop offset="20%" stop-color="#292a2d" stop-opacity="1"></stop><stop offset="80%" stop-color="#292a2d" stop-opacity="1"></stop></linearGradient></defs><defs><linearGradient id="grad1_1" x1="33.3%" y1="0%" x2="100%" y2="100%"><stop offset="20%" stop-color="#292a2d" stop-opacity="1"></stop><stop offset="80%" stop-color="#1c1e23" stop-opacity="1"></stop></linearGradient></defs><defs><linearGradient id="grad1_2" x1="33.3%" y1="0%" x2="100%" y2="100%"><stop offset="20%" stop-color="#0f131a" stop-opacity="1"></stop><stop offset="80%" stop-color="#1c1e23" stop-opacity="1"></stop></linearGradient></defs><defs><linearGradient id="grad2_0" x1="0%" y1="0%" x2="66.7%" y2="100%"><stop offset="20%" stop-color="#292a2d" stop-opacity="1"></stop><stop offset="80%" stop-color="#292a2d" stop-opacity="1"></stop></linearGradient></defs><defs><linearGradient id="grad2_1" x1="0%" y1="0%" x2="66.7%" y2="100%"><stop offset="20%" stop-color="#1c1e23" stop-opacity="1"></stop><stop offset="80%" stop-color="#292a2d" stop-opacity="1"></stop></linearGradient></defs><defs><linearGradient id="grad2_2" x1="0%" y1="0%" x2="66.7%" y2="100%"><stop offset="20%" stop-color="#1c1e23" stop-opacity="1"></stop><stop offset="80%" stop-color="#0f131a" stop-opacity="1"></stop></linearGradient></defs><g transform="translate(900, 0)"><path d="M0 378.6C-46.5 369.3 -93 360 -142.7 344.6C-192.5 329.2 -245.5 307.6 -267.7 267.7C-289.9 227.8 -281.4 169.7 -294.7 122.1C-308.1 74.4 -343.3 37.2 -378.6 0L0 0Z" fill="#16191f"></path><path d="M0 252.4C-31 246.2 -62 240 -95.2 229.7C-128.3 219.4 -163.7 205 -178.5 178.5C-193.3 151.9 -187.6 113.2 -196.5 81.4C-205.4 49.6 -228.9 24.8 -252.4 0L0 0Z" fill="#232428"></path><path d="M0 126.2C-15.5 123.1 -31 120 -47.6 114.9C-64.2 109.7 -81.8 102.5 -89.2 89.2C-96.6 75.9 -93.8 56.6 -98.2 40.7C-102.7 24.8 -114.4 12.4 -126.2 0L0 0Z" fill="#292a2d"></path></g><g transform="translate(0, 600)"><path d="M0 -378.6C50.6 -366.7 101.2 -354.9 135.5 -327.1C169.8 -299.2 187.8 -255.3 225.6 -225.6C263.4 -195.8 321 -180.1 349.8 -144.9C378.6 -109.6 378.6 -54.8 378.6 0L0 0Z" fill="#16191f"></path><path d="M0 -252.4C33.7 -244.5 67.4 -236.6 90.3 -218C113.2 -199.5 125.2 -170.2 150.4 -150.4C175.6 -130.5 214 -120.1 233.2 -96.6C252.4 -73.1 252.4 -36.5 252.4 0L0 0Z" fill="#232428"></path><path d="M0 -126.2C16.9 -122.2 33.7 -118.3 45.2 -109C56.6 -99.7 62.6 -85.1 75.2 -75.2C87.8 -65.3 107 -60 116.6 -48.3C126.2 -36.5 126.2 -18.3 126.2 0L0 0Z" fill="#292a2d"></path></g></svg>