<svg id="visual" viewBox="0 0 900 675" width="900" height="675" xmlns="http://www.w3.org/2000/svg" version="1.1">
    <rect x="0" y="0" width="900" height="675" fill="#101319"></rect>
    <defs>
        <linearGradient id="grad1_0" x1="25%" y1="100%" x2="100%" y2="0%">
            <stop offset="23.333333333333336%" stop-color="#101319" stop-opacity="1"></stop>
            <stop offset="76.66666666666666%" stop-color="#101319" stop-opacity="1"></stop>
        </linearGradient>
    </defs>
    <defs>
        <linearGradient id="grad2_0" x1="0%" y1="100%" x2="75%" y2="0%">
            <stop offset="23.333333333333336%" stop-color="#101319" stop-opacity="1"></stop>
            <stop offset="76.66666666666666%" stop-color="#101319" stop-opacity="1"></stop>
        </linearGradient>
    </defs>
    <g transform="translate(900, 675)">
        <path d="M-365.6 0C-338.9 -38.9 -312.2 -77.8 -298.4 -123.6C-284.6 -169.4 -283.8 -222.2 -258.5 -258.5C-233.3 -294.9 -183.8 -314.7 -136.6 -329.8C-89.5 -344.9 -44.7 -355.3 0 -365.6L0 0Z"
              fill="#3B3E43"></path>
    </g>
    <g transform="translate(0, 0)">
        <path d="M365.6 0C322.5 30.9 279.4 61.9 268.8 111.4C258.3 160.8 280.4 228.9 258.5 258.5C236.7 288.2 171 279.6 120.5 291C70.1 302.5 35.1 334.1 0 365.6L0 0Z"
              fill="#3B3E43"></path>
    </g>
</svg>