<svg id="visual" viewBox="0 0 900 600" width="900" height="600" xmlns="http://www.w3.org/2000/svg" xmlns:xlink="http://www.w3.org/1999/xlink" version="1.1"><rect width="900" height="600" fill="#101319"></rect><g><g transform="translate(857 230)"><path d="M34.9 -11.8C37.8 -2.1 27.9 11.2 13.7 22.3C-0.4 33.4 -18.7 42.2 -30.9 35.1C-43.1 28 -49.2 5 -43 -9C-36.9 -23.1 -18.4 -28.1 -1.2 -27.7C15.9 -27.3 31.9 -21.4 34.9 -11.8Z" fill="#3B3E43"></path></g><g transform="translate(328 336)"><path d="M26.1 -5C30.4 4.8 28.1 20.2 16.8 30.1C5.4 40.1 -15.1 44.5 -26.2 36.3C-37.4 28.2 -39.2 7.4 -33.3 -4.6C-27.4 -16.6 -13.7 -19.9 -1.4 -19.5C10.9 -19 21.8 -14.8 26.1 -5Z" fill="#3B3E43"></path></g><g transform="translate(130 255)"><path d="M34.4 -12.1C39.2 3.5 33.9 21.5 23 28.8C12 36.1 -4.6 32.7 -14.1 24.6C-23.6 16.5 -25.9 3.7 -22.3 -10.3C-18.8 -24.2 -9.4 -39.3 2.7 -40.1C14.8 -41 29.6 -27.7 34.4 -12.1Z" fill="#3B3E43"></path></g><g transform="translate(724 426)"><path d="M28.7 -12.5C33.1 4.3 29.8 20.4 17.5 31C5.2 41.6 -16.1 46.5 -29.9 37.4C-43.6 28.3 -49.9 5 -43.6 -14.2C-37.4 -33.5 -18.7 -48.8 -3.3 -47.7C12.1 -46.6 24.3 -29.2 28.7 -12.5Z" fill="#3B3E43"></path></g><g transform="translate(105 12)"><path d="M16.6 -4.7C20.1 5.4 20.5 17.1 15.4 20.7C10.3 24.4 -0.4 19.9 -10.2 13C-20 6.1 -28.9 -3.1 -27 -10.9C-25.2 -18.7 -12.6 -25.1 -3 -24.1C6.5 -23.1 13.1 -14.7 16.6 -4.7Z" fill="#3B3E43"></path></g><g transform="translate(512 511)"><path d="M37.5 -17.1C39.8 -5.2 26.7 6.8 15.6 12.8C4.5 18.9 -4.7 18.9 -12.6 14C-20.5 9 -27.1 -1 -24.8 -13C-22.5 -24.9 -11.2 -38.9 3.2 -40C17.6 -41 35.2 -29.1 37.5 -17.1Z" fill="#3B3E43"></path></g><g transform="translate(704 233)"><path d="M22.6 -7.4C24.9 -0.3 19.3 9.4 10 16.9C0.6 24.5 -12.6 30 -20.2 25.2C-27.7 20.3 -29.6 5 -25.3 -4.8C-21 -14.6 -10.5 -19.1 -0.2 -19C10.2 -19 20.3 -14.4 22.6 -7.4Z" fill="#3B3E43"></path></g><g transform="translate(19 412)"><path d="M22.6 -12.3C25.7 2.1 22.1 13.8 14.1 19.7C6.1 25.6 -6.3 25.6 -14 19.9C-21.8 14.1 -25 2.5 -21.8 -12C-18.7 -26.4 -9.4 -43.7 0.2 -43.8C9.8 -43.8 19.6 -26.7 22.6 -12.3Z" fill="#3B3E43"></path></g><g transform="translate(365 57)"><path d="M21.8 -6.1C24.2 0.5 19.5 10.4 11.7 16C4 21.6 -6.8 22.9 -13.4 18.2C-20.1 13.4 -22.5 2.6 -19.6 -4.6C-16.7 -11.8 -8.3 -15.6 0.7 -15.8C9.7 -16 19.3 -12.7 21.8 -6.1Z" fill="#3B3E43"></path></g><g transform="translate(596 9)"><path d="M25.2 -9.3C27.5 -1.2 20.6 8.8 9.3 18.3C-2.1 27.9 -17.8 37 -25.4 32.1C-33 27.3 -32.6 8.4 -27 -4.2C-21.4 -16.8 -10.7 -23.2 0.4 -23.3C11.5 -23.4 23 -17.3 25.2 -9.3Z" fill="#3B3E43"></path></g><g transform="translate(489 297)"><path d="M26.4 -8.3C28.3 -2.6 20 6.7 12 11.3C4 15.9 -3.7 15.7 -8.2 12.2C-12.8 8.7 -14.2 1.8 -12.3 -3.8C-10.4 -9.3 -5.2 -13.6 3.5 -14.7C12.2 -15.9 24.4 -13.9 26.4 -8.3Z" fill="#3B3E43"></path></g><g transform="translate(291 563)"><path d="M42.3 -13.9C46.7 -0.4 36.4 17.8 24 24.8C11.6 31.9 -2.9 27.9 -15.7 19.2C-28.5 10.5 -39.7 -3 -36.8 -14.5C-33.9 -26 -16.9 -35.5 1 -35.8C19 -36.2 38 -27.3 42.3 -13.9Z" fill="#3B3E43"></path></g><g transform="translate(649 571)"><path d="M30.1 -11.7C32.2 -3.3 22.4 7.1 13.5 12C4.6 16.9 -3.4 16.3 -10.3 11.8C-17.3 7.3 -23.2 -1.1 -21.3 -9.2C-19.4 -17.3 -9.7 -25.1 2.1 -25.8C14 -26.5 27.9 -20.1 30.1 -11.7Z" fill="#3B3E43"></path></g><g transform="translate(184 432)"><path d="M25.9 -7.7C30.8 6.9 30.3 24 21.5 30.6C12.7 37.2 -4.4 33.4 -17.7 23.9C-31 14.3 -40.4 -0.9 -36.8 -13.6C-33.2 -26.4 -16.6 -36.5 -3.1 -35.5C10.4 -34.5 20.9 -22.3 25.9 -7.7Z" fill="#3B3E43"></path></g><g transform="translate(877 511)"><path d="M18 -6.8C19.2 -2.3 13.1 3.7 7.7 6.7C2.3 9.8 -2.5 9.9 -7.3 7.1C-12.1 4.3 -17 -1.4 -15.8 -6C-14.6 -10.5 -7.3 -13.9 0.6 -14.1C8.4 -14.3 16.9 -11.3 18 -6.8Z" fill="#3B3E43"></path></g><g transform="translate(752 31)"><path d="M31 -8.8C35.2 2.6 30 18.4 19.3 26.1C8.5 33.8 -7.8 33.5 -18 25.8C-28.2 18.2 -32.4 3.2 -28.3 -8.2C-24.3 -19.5 -12.2 -27.1 0.6 -27.3C13.5 -27.5 26.9 -20.3 31 -8.8Z" fill="#3B3E43"></path></g><g transform="translate(83 595)"><path d="M17.9 -7.7C20.4 1.8 17.7 11.1 10.6 16.7C3.6 22.3 -7.6 24.1 -13.5 19.6C-19.5 15 -20.1 4.2 -17 -6.3C-13.8 -16.8 -6.9 -26.8 0.4 -26.9C7.7 -27.1 15.5 -17.3 17.9 -7.7Z" fill="#3B3E43"></path></g><g transform="translate(7 130)"><path d="M47.9 -9.4C54.5 4.7 47.1 29.6 32.6 38.6C18.2 47.6 -3.1 40.6 -21.1 27.9C-39.1 15.1 -53.7 -3.6 -49.6 -14.2C-45.6 -24.9 -22.8 -27.6 -1.1 -27.2C20.7 -26.9 41.3 -23.5 47.9 -9.4Z" fill="#3B3E43"></path></g><g transform="translate(528 152)"><path d="M22.4 -7C26.3 4.7 24.8 18.4 15.9 25.7C7.1 33.1 -9.2 34 -19.7 26.5C-30.2 19 -35 3 -30.8 -9.2C-26.6 -21.3 -13.3 -29.7 -2 -29.1C9.2 -28.4 18.5 -18.7 22.4 -7Z" fill="#3B3E43"></path></g><g transform="translate(258 166)"><path d="M35.7 -6.9C41 4.5 36.2 23.9 24.4 32.2C12.6 40.4 -6.3 37.6 -21 27.3C-35.6 17 -46 -0.7 -41.8 -10.7C-37.6 -20.7 -18.8 -23 -1.8 -22.4C15.3 -21.9 30.5 -18.4 35.7 -6.9Z" fill="#3B3E43"></path></g></g></svg>