<svg width="256" height="256" viewBox="0 0 256 256" fill="none" xmlns="http://www.w3.org/2000/svg">
<path d="M176.461 97.3824C172.109 100.07 182.298 129.331 187.008 128.666C189.952 128.256 193.254 115.789 187.571 106.214C184.602 101.171 178.611 96.0512 176.461 97.3824Z" fill="#880061"/>
<path d="M102.861 73.3952C95.4368 76.544 87.1168 80.1536 83.6864 88.2432C78.1568 101.248 90.88 111.462 84.8384 124.314C81.3312 131.738 76.4416 129.664 69.504 138.342C61.2608 148.685 56.448 166.349 63.6416 180.224C69.12 190.822 79.4112 194.995 88.1664 198.554C91.1872 199.782 111.181 207.616 130.202 201.062C134.758 199.501 136.602 197.248 140.493 197.632C149.914 198.605 151.322 211.174 159.923 213.222C167.142 214.938 175.539 208.307 180.838 201.651C181.888 200.32 182.835 198.989 183.629 197.709C188.237 188.826 191.949 178.56 192.922 168.269C193.152 165.683 193.229 163.123 193.101 160.563C192.614 154.01 191.283 147.635 187.264 141.824C180.045 130.688 169.062 121.958 169.011 108.083C168.704 105.984 168.499 103.808 168.294 101.606C167.245 90.5472 166.349 78.6944 155.418 71.6288C140.954 62.3616 124.083 66.0736 109.517 70.9888C107.11 71.7312 104.909 72.5248 102.861 73.3952Z" fill="#880061"/>
<path d="M44.2624 117.197L43.0592 117.35C41.9584 117.504 40.96 116.736 40.8064 115.635L39.1936 103.706C39.04 102.605 39.808 101.606 40.9088 101.453L42.112 101.299C43.2128 101.146 44.2112 101.914 44.3648 103.014L45.9776 114.944C46.1312 116.045 45.3632 117.043 44.2624 117.197Z" fill="white"/>
<path d="M38.7584 115.379C37.6576 115.533 36.6592 114.765 36.5056 113.664L35.584 106.752C35.4304 105.651 36.1984 104.653 37.2992 104.499C38.4 104.346 39.3984 105.114 39.552 106.214L40.4736 113.101C40.6272 114.202 39.8592 115.226 38.7584 115.379Z" fill="white"/>
<path d="M63.0783 114.662L64.2815 114.509C65.3823 114.355 66.1503 113.357 65.9967 112.256L64.3839 100.326C64.2303 99.2256 63.2319 98.4576 62.1311 98.6112L60.9279 98.7648C59.8271 98.9184 59.0591 99.9168 59.2127 101.018L60.8255 112.947C60.9791 114.048 61.9775 114.816 63.0783 114.662Z" fill="white"/>
<path d="M67.9169 111.437C69.0177 111.283 69.7857 110.285 69.6321 109.184L68.7105 102.298C68.5569 101.197 67.5585 100.429 66.4577 100.582C65.3569 100.736 64.5889 101.734 64.7425 102.835L65.6641 109.722C65.7921 110.822 66.8161 111.59 67.9169 111.437Z" fill="white"/>
<path d="M45.4678 111.019L60.3105 109.023L59.7577 104.912L44.915 106.909L45.4678 111.019Z" fill="white"/>
<path d="M44.2624 117.197L43.0592 117.35C41.9584 117.504 40.96 116.736 40.8064 115.635L39.1936 103.706C39.04 102.605 39.808 101.606 40.9088 101.453L42.112 101.299C43.2128 101.146 44.2112 101.914 44.3648 103.014L45.9776 114.944C46.1312 116.045 45.3632 117.043 44.2624 117.197Z" stroke="#4E5A7D" stroke-width="3" stroke-miterlimit="10" stroke-linecap="round" stroke-linejoin="round"/>
<path d="M38.7584 115.379C37.6576 115.533 36.6592 114.765 36.5056 113.664L35.584 106.752C35.4304 105.651 36.1984 104.653 37.2992 104.499C38.4 104.346 39.3984 105.114 39.552 106.214L40.4736 113.101C40.6272 114.202 39.8592 115.226 38.7584 115.379Z" stroke="#4E5A7D" stroke-width="3" stroke-miterlimit="10" stroke-linecap="round" stroke-linejoin="round"/>
<path d="M63.0783 114.662L64.2815 114.509C65.3823 114.355 66.1503 113.357 65.9967 112.256L64.3839 100.326C64.2303 99.2256 63.2319 98.4576 62.1311 98.6112L60.9279 98.7648C59.8271 98.9184 59.0591 99.9168 59.2127 101.018L60.8255 112.947C60.9791 114.048 61.9775 114.816 63.0783 114.662Z" stroke="#4E5A7D" stroke-width="3" stroke-miterlimit="10" stroke-linecap="round" stroke-linejoin="round"/>
<path d="M67.9169 111.437C69.0177 111.283 69.7857 110.285 69.6321 109.184L68.7105 102.298C68.5569 101.197 67.5585 100.429 66.4577 100.582C65.3569 100.736 64.5889 101.734 64.7425 102.835L65.6641 109.722C65.7921 110.822 66.8161 111.59 67.9169 111.437Z" stroke="#4E5A7D" stroke-width="3" stroke-miterlimit="10" stroke-linecap="round" stroke-linejoin="round"/>
<path d="M45.4678 111.019L60.3105 109.023L59.7577 104.912L44.915 106.909L45.4678 111.019Z" stroke="#4E5A7D" stroke-width="3" stroke-miterlimit="10" stroke-linecap="round" stroke-linejoin="round"/>
<path d="M159.821 190.259H104.371L106.445 181.376C107.52 176.768 113.203 173.414 119.859 173.414H144.333C150.989 173.414 156.672 176.794 157.747 181.376L159.821 190.259Z" fill="#E08484"/>
<path d="M159.821 190.259H104.371L106.445 181.376C107.52 176.768 113.203 173.414 119.859 173.414H144.333C150.989 173.414 156.672 176.794 157.747 181.376L159.821 190.259Z" stroke="#4E5A7D" stroke-width="6" stroke-miterlimit="10" stroke-linecap="round" stroke-linejoin="round"/>
<path d="M152.064 183.501H145.101C142.438 183.501 140.288 181.35 140.288 178.688V167.654H123.904V178.688C123.904 181.35 121.754 183.501 119.091 183.501H112.128C101.939 183.501 93.696 191.744 93.696 201.933V216.96H170.496V201.933C170.496 191.744 162.227 183.501 152.064 183.501Z" fill="#FBE3D5"/>
<path d="M131.789 172.723C136.483 172.723 140.288 170.488 140.288 167.731C140.288 164.974 136.483 162.739 131.789 162.739C127.095 162.739 123.29 164.974 123.29 167.731C123.29 170.488 127.095 172.723 131.789 172.723Z" fill="#D5B6A5"/>
<path d="M170.496 201.933V216.96H93.696V201.933C93.696 191.744 101.939 183.501 112.128 183.501H119.091C119.27 183.501 119.45 183.501 119.629 183.475C121.523 188.621 126.49 192.307 132.301 192.307C138.112 192.307 143.053 188.646 144.947 183.501C144.998 183.501 145.05 183.501 145.126 183.501H152.064C162.227 183.501 170.496 191.744 170.496 201.933Z" fill="#E08484"/>
<path d="M124.928 202.854C117.734 202.854 111.872 196.992 111.872 189.798V183.45H152.806V189.798C152.806 196.992 146.944 202.854 139.75 202.854H124.928Z" fill="#D87171"/>
<path d="M152.064 183.501H145.101C142.438 183.501 140.288 181.35 140.288 178.688V167.654H123.904V178.688C123.904 181.35 121.754 183.501 119.091 183.501H112.128C101.939 183.501 93.696 191.744 93.696 201.933V216.96H170.496V201.933C170.496 191.744 162.227 183.501 152.064 183.501Z" stroke="#4E5A7D" stroke-width="6" stroke-miterlimit="10" stroke-linecap="round" stroke-linejoin="round"/>
<path d="M149.888 106.035C149.606 102.144 150.63 99.2001 152.448 98.5601C154.24 97.9201 156.339 99.6865 157.056 100.301C163.84 105.984 159.667 125.005 158.515 129.894L149.888 106.035Z" fill="#BCAFAA"/>
<path d="M149.376 106.035C149.094 102.144 150.118 99.2 151.936 98.56C152.294 98.432 152.653 98.4064 153.011 98.432" stroke="#4E5A7D" stroke-width="6" stroke-miterlimit="10" stroke-linecap="round" stroke-linejoin="round"/>
<path d="M153.523 98.432C155.008 98.56 156.467 99.7888 157.056 100.301C163.84 105.984 159.667 125.005 158.515 129.894L149.888 106.061" stroke="#4E5A7D" stroke-width="6" stroke-miterlimit="10" stroke-linecap="round" stroke-linejoin="round"/>
<path d="M105.344 131.635V123.008C105.344 113.203 114.023 115.738 123.802 115.738L141.901 116.429C147.584 116.429 151.015 107.955 154.24 112.102C154.138 109.082 153.575 105.242 151.808 101.222C150.835 98.9696 146.765 90.4448 137.395 86.528C134.221 85.1968 131.584 84.8896 129.971 84.7104C123.802 84.0192 121.267 82.9184 110.669 85.8624C103.962 87.7056 99.1489 91.0592 99.0721 92.5184C98.9953 93.8496 102.247 93.5168 104.909 95.5136C109.235 98.7392 103.194 106.01 102.349 115.226C101.991 119.168 102.323 124.698 105.344 131.635Z" fill="#BCAFAA"/>
<path d="M153.011 104.499C152.679 103.168 152.013 101.709 151.808 101.222C150.835 98.9696 146.765 90.4448 137.395 86.528C134.221 85.1968 131.584 84.8896 129.971 84.7104C123.802 84.0192 119.629 83.3536 109.031 86.2976C102.323 88.1408 98.5346 89.7024 99.0722 92.5184C99.405 94.2848 103.373 93.7984 105.677 97.1264C108.749 101.581 103.194 106.01 102.349 115.251C101.991 119.194 102.323 124.723 105.344 131.661V123.034C105.344 113.229 114.023 115.763 123.802 115.763L141.901 116.454C147.584 116.454 151.015 107.981 154.24 112.128" stroke="#4E5A7D" stroke-width="6" stroke-miterlimit="10" stroke-linecap="round" stroke-linejoin="round"/>
<path d="M153.344 111.002C152.064 109.619 150.144 109.03 148.301 109.414C143.718 110.387 138.138 110.95 132.096 110.95C125.798 110.95 119.987 110.336 115.277 109.286C113.434 108.877 111.488 109.44 110.208 110.822C107.213 113.997 105.37 118.272 105.37 122.982V144.845C105.37 158.874 116.762 170.266 130.79 170.266H132.634C146.662 170.266 158.054 158.874 158.054 144.845V122.982C158.029 118.374 156.237 114.176 153.344 111.002Z" fill="#FBE3D5"/>
<path d="M132.608 167.142H130.765C116.736 167.142 105.344 155.75 105.344 141.722V144.358C105.344 158.387 116.736 169.779 130.765 169.779H132.608C146.637 169.779 158.029 158.387 158.029 144.358V141.722C158.029 155.75 146.637 167.142 132.608 167.142Z" fill="#D5B6A5"/>
<path d="M133.479 146.176C133.479 146.176 136.064 145.382 137.267 145.766C138.138 142.003 135.475 138.573 135.475 138.573" stroke="#4E5A7D" stroke-width="6" stroke-miterlimit="10" stroke-linecap="round" stroke-linejoin="round"/>
<path d="M138.65 157.03C137.165 158.003 135.27 158.592 133.171 158.592C128.512 158.592 124.723 155.674 124.723 152.09" stroke="#4E5A7D" stroke-width="6" stroke-miterlimit="10" stroke-linecap="round" stroke-linejoin="round"/>
<path d="M123.802 133.197C125.244 133.197 126.413 131.73 126.413 129.92C126.413 128.11 125.244 126.643 123.802 126.643C122.36 126.643 121.19 128.11 121.19 129.92C121.19 131.73 122.36 133.197 123.802 133.197Z" fill="#4E5A7D"/>
<path d="M143.155 133.069C144.597 133.069 145.766 131.602 145.766 129.792C145.766 127.982 144.597 126.515 143.155 126.515C141.713 126.515 140.544 127.982 140.544 129.792C140.544 131.602 141.713 133.069 143.155 133.069Z" fill="#4E5A7D"/>
<path d="M148.301 109.44C143.718 110.413 138.138 110.976 132.096 110.976C125.798 110.976 119.987 110.362 115.277 109.312C113.434 108.902 111.488 109.466 110.208 110.848C107.213 114.022 105.37 118.298 105.37 123.008V124.442C113.997 125.056 122.752 125.389 131.405 125.389C140.262 125.389 149.197 125.056 158.054 124.39V123.008C158.054 118.374 156.288 114.176 153.37 111.002C152.064 109.619 150.144 109.03 148.301 109.44Z" fill="#D5B6A5"/>
<path d="M153.344 111.002C152.064 109.619 150.144 109.03 148.301 109.414C143.718 110.387 138.138 110.95 132.096 110.95C125.798 110.95 119.987 110.336 115.277 109.286C113.434 108.877 111.488 109.44 110.208 110.822C107.213 113.997 105.37 118.272 105.37 122.982V144.845C105.37 158.874 116.762 170.266 130.79 170.266H132.634C146.662 170.266 158.054 158.874 158.054 144.845V122.982C158.029 118.374 156.237 114.176 153.344 111.002Z" stroke="#4E5A7D" stroke-width="6" stroke-miterlimit="10" stroke-linecap="round" stroke-linejoin="round"/>
<path d="M158.899 122.522C140.57 123.597 122.163 123.597 103.834 122.522C102.554 122.445 101.555 121.472 101.555 120.269V114.432C101.555 113.126 102.758 112.102 104.166 112.179C122.291 113.254 140.467 113.254 158.592 112.179C160 112.102 161.203 113.126 161.203 114.432V120.269C161.203 121.472 160.205 122.445 158.899 122.522Z" fill="#84BDE1"/>
<path opacity="0.3" d="M158.592 112.205C140.467 113.28 122.291 113.28 104.166 112.205C102.758 112.128 101.555 113.152 101.555 114.458V116.403C101.555 115.098 102.758 114.074 104.166 114.15C122.291 115.226 140.467 115.226 158.592 114.15C160 114.074 161.203 115.098 161.203 116.403V114.432C161.203 113.152 160 112.128 158.592 112.205Z" fill="#84BDE1"/>
<path d="M158.899 122.522C140.57 123.597 122.163 123.597 103.834 122.522C102.554 122.445 101.555 121.472 101.555 120.269V114.432C101.555 113.126 102.758 112.102 104.166 112.179C122.291 113.254 140.467 113.254 158.592 112.179C160 112.102 161.203 113.126 161.203 114.432V120.269C161.203 121.472 160.205 122.445 158.899 122.522Z" stroke="#4E5A7D" stroke-width="6" stroke-miterlimit="10" stroke-linecap="round" stroke-linejoin="round"/>
<path d="M151.808 100.787C151.808 100.787 157.082 100.787 158.003 110.797" stroke="#4E5A7D" stroke-width="4" stroke-miterlimit="10" stroke-linecap="round" stroke-linejoin="round"/>
<path d="M122.291 88.3969C133.171 88.9601 143.334 94.3873 144.563 103.834" stroke="#4E5A7D" stroke-width="4" stroke-miterlimit="10" stroke-linecap="round" stroke-linejoin="round"/>
<path d="M114.867 89.216C116.275 88.7808 118.067 88.3712 119.91 88.3968" stroke="#4E5A7D" stroke-width="4" stroke-miterlimit="10" stroke-linecap="round" stroke-linejoin="round"/>
<path d="M123.187 94.2336C129.075 95.1808 136.704 96.1024 139.546 105.805" stroke="#4E5A7D" stroke-width="4" stroke-miterlimit="10" stroke-linecap="round" stroke-linejoin="round"/>
<path d="M131.379 161.613C131.379 161.613 132.838 162.483 135.475 161.613" stroke="#4E5A7D" stroke-width="6" stroke-miterlimit="10" stroke-linecap="round" stroke-linejoin="round"/>
<path d="M119.578 148.173C122.236 148.173 124.39 146.018 124.39 143.36C124.39 140.702 122.236 138.547 119.578 138.547C116.92 138.547 114.765 140.702 114.765 143.36C114.765 146.018 116.92 148.173 119.578 148.173Z" fill="#F5CFC4"/>
<path d="M144.973 148.173C147.631 148.173 149.786 146.018 149.786 143.36C149.786 140.702 147.631 138.547 144.973 138.547C142.315 138.547 140.16 140.702 140.16 143.36C140.16 146.018 142.315 148.173 144.973 148.173Z" fill="#F5CFC4"/>
<path d="M104.627 138.061H105.139V124.595H104.627C102.938 124.595 101.555 125.978 101.555 127.667V134.989C101.555 136.678 102.938 138.061 104.627 138.061Z" fill="#FEF0E3"/>
<path d="M104.627 138.061H105.139V124.595H104.627C102.938 124.595 101.555 125.978 101.555 127.667V134.989C101.555 136.678 102.938 138.061 104.627 138.061Z" stroke="#4E5A7D" stroke-width="6" stroke-miterlimit="10" stroke-linecap="round" stroke-linejoin="round"/>
<path d="M158.541 138.061H158.029V124.595H158.541C160.23 124.595 161.613 125.978 161.613 127.667V134.989C161.613 136.678 160.23 138.061 158.541 138.061Z" fill="#FEF0E3"/>
<path d="M158.541 138.061H158.029V124.595H158.541C160.23 124.595 161.613 125.978 161.613 127.667V134.989C161.613 136.678 160.23 138.061 158.541 138.061Z" stroke="#4E5A7D" stroke-width="6" stroke-miterlimit="10" stroke-linecap="round" stroke-linejoin="round"/>
<path d="M139.75 200.806H124.928C118.861 200.806 113.92 195.866 113.92 189.798V179.558H150.758V189.798C150.758 195.891 145.843 200.806 139.75 200.806Z" fill="#E08484"/>
<path d="M150.758 179.558V189.798C150.758 195.866 145.818 200.806 139.75 200.806H124.928C118.861 200.806 113.92 195.866 113.92 189.798V179.558" stroke="#4E5A7D" stroke-width="6" stroke-miterlimit="10" stroke-linecap="round" stroke-linejoin="round"/>
<path d="M144.922 183.501C143.027 188.646 138.061 192.307 132.275 192.307C126.464 192.307 121.498 188.621 119.603 183.475C122.01 183.219 123.904 181.171 123.904 178.688V177.792H140.288V178.688C140.288 181.274 142.336 183.398 144.922 183.501Z" fill="#FBE3D5"/>
<path d="M143.181 183.091C141.466 187.546 137.19 190.515 132.275 190.515C127.309 190.515 123.008 187.469 121.318 182.938C120.806 183.219 120.218 183.398 119.603 183.475C121.498 188.621 126.464 192.307 132.275 192.307C138.086 192.307 143.027 188.646 144.922 183.501C144.307 183.475 143.718 183.322 143.181 183.091Z" fill="#EDD4C6"/>
<path d="M140.288 177.766V178.662C140.288 180.89 141.798 182.784 143.872 183.322C144.41 183.475 144.717 184.064 144.486 184.576C142.31 189.133 137.677 192.282 132.301 192.282C126.874 192.282 122.214 189.082 120.064 184.474C119.834 183.987 120.09 183.398 120.627 183.245C122.547 182.605 123.93 180.813 123.93 178.662V177.766" stroke="#4E5A7D" stroke-width="6" stroke-miterlimit="10" stroke-linecap="round" stroke-linejoin="round"/>
<path d="M119.117 181.837C120.499 187.827 125.85 192.307 132.275 192.307C138.701 192.307 144.051 187.827 145.434 181.837" stroke="#4E5A7D" stroke-width="6" stroke-miterlimit="10" stroke-linecap="round" stroke-linejoin="round"/>
<path d="M122.803 196.326C123.934 196.326 124.851 195.799 124.851 195.149C124.851 194.498 123.934 193.971 122.803 193.971C121.672 193.971 120.755 194.498 120.755 195.149C120.755 195.799 121.672 196.326 122.803 196.326Z" fill="#4E5A7D"/>
<path d="M122.803 195.149V208.486" stroke="#4E5A7D" stroke-width="8" stroke-miterlimit="10" stroke-linecap="round" stroke-linejoin="round"/>
<path d="M141.363 196.326C142.494 196.326 143.411 195.799 143.411 195.149C143.411 194.498 142.494 193.971 141.363 193.971C140.232 193.971 139.315 194.498 139.315 195.149C139.315 195.799 140.232 196.326 141.363 196.326Z" fill="#4E5A7D"/>
<path d="M141.363 195.149V204.902" stroke="#4E5A7D" stroke-width="8" stroke-miterlimit="10" stroke-linecap="round" stroke-linejoin="round"/>
<path d="M123.546 212.019H122.01C121.037 212.019 120.32 211.123 120.55 210.176L121.216 207.206H124.339L125.005 210.176C125.235 211.123 124.518 212.019 123.546 212.019Z" fill="#FEF0E3"/>
<path d="M123.546 212.019H122.01C121.037 212.019 120.32 211.123 120.55 210.176L121.216 207.206H124.339L125.005 210.176C125.235 211.123 124.518 212.019 123.546 212.019Z" stroke="#4E5A7D" stroke-width="6" stroke-miterlimit="10" stroke-linecap="round" stroke-linejoin="round"/>
<path d="M142.131 209.613H140.595C139.623 209.613 138.906 208.717 139.136 207.77L139.802 204.8H142.925L143.591 207.77C143.821 208.717 143.104 209.613 142.131 209.613Z" fill="#FEF0E3"/>
<path d="M142.131 209.613H140.595C139.623 209.613 138.906 208.717 139.136 207.77L139.802 204.8H142.925L143.591 207.77C143.821 208.717 143.104 209.613 142.131 209.613Z" stroke="#4E5A7D" stroke-width="6" stroke-miterlimit="10" stroke-linecap="round" stroke-linejoin="round"/>
<path opacity="0.58" d="M130.048 182.451C130.048 182.451 130.867 182.528 131.789 183.475C131.789 183.475 132.864 182.451 133.786 182.451" stroke="#D5B6A5" stroke-width="6" stroke-miterlimit="10" stroke-linecap="round" stroke-linejoin="round"/>
<path d="M133.171 104.73C133.171 104.73 132.608 101.504 126.925 99.7376" stroke="#4E5A7D" stroke-width="4" stroke-miterlimit="10" stroke-linecap="round" stroke-linejoin="round"/>
<path d="M109.338 207.206V216.96" stroke="#4E5A7D" stroke-width="6" stroke-miterlimit="10" stroke-linecap="round" stroke-linejoin="round"/>
<path d="M154.266 207.206V216.96" stroke="#4E5A7D" stroke-width="6" stroke-miterlimit="10" stroke-linecap="round" stroke-linejoin="round"/>
<path d="M139.878 54.8608H126.464C125.056 54.8608 123.904 53.7088 123.904 52.3008V35.584C123.904 34.176 125.056 33.024 126.464 33.024H139.878C141.286 33.024 142.438 34.176 142.438 35.584V52.3008C142.438 53.7088 141.286 54.8608 139.878 54.8608Z" fill="white"/>
<path d="M139.878 54.8608H126.464C125.056 54.8608 123.904 53.7088 123.904 52.3008V35.584C123.904 34.176 125.056 33.024 126.464 33.024H139.878C141.286 33.024 142.438 34.176 142.438 35.584V52.3008C142.438 53.7088 141.286 54.8608 139.878 54.8608Z" stroke="#4E5A7D" stroke-width="3" stroke-miterlimit="10" stroke-linecap="round" stroke-linejoin="round"/>
<path d="M141.184 59.4944C144.026 59.4944 146.33 57.1906 146.33 54.3488C146.33 51.507 144.026 49.2032 141.184 49.2032C138.342 49.2032 136.038 51.507 136.038 54.3488C136.038 57.1906 138.342 59.4944 141.184 59.4944Z" fill="white"/>
<path d="M141.184 59.4944C144.026 59.4944 146.33 57.1906 146.33 54.3488C146.33 51.507 144.026 49.2032 141.184 49.2032C138.342 49.2032 136.038 51.507 136.038 54.3488C136.038 57.1906 138.342 59.4944 141.184 59.4944Z" stroke="#4E5A7D" stroke-width="3" stroke-miterlimit="10" stroke-linecap="round" stroke-linejoin="round"/>
<path d="M138.829 54.2976L140.442 55.9104L143.539 52.7872" stroke="#4E5A7D" stroke-width="4" stroke-miterlimit="10" stroke-linecap="round" stroke-linejoin="round"/>
<path d="M134.81 31.6672V29.5424C134.81 28.6208 134.067 27.8784 133.146 27.8784C132.224 27.8784 131.482 28.6208 131.482 29.5424V31.6672H129.664V32.3328V34.56H136.627V32.3328V31.6672H134.81Z" fill="white"/>
<path d="M134.81 31.872V29.9008C134.81 29.056 134.067 28.3648 133.146 28.3648C132.224 28.3648 131.482 29.056 131.482 29.9008V31.872H129.664V32.4864V34.56H136.627V32.4864V31.872H134.81Z" stroke="#4E5A7D" stroke-width="3" stroke-miterlimit="10" stroke-linecap="round" stroke-linejoin="round"/>
<path d="M128.845 40.7552H138.368" stroke="#4E5A7D" stroke-width="3" stroke-miterlimit="10" stroke-linecap="round" stroke-linejoin="round"/>
<path d="M128.845 43.9296H138.368" stroke="#4E5A7D" stroke-width="3" stroke-miterlimit="10" stroke-linecap="round" stroke-linejoin="round"/>
<path d="M130.585 47.0016H136.627" stroke="#4E5A7D" stroke-width="3" stroke-miterlimit="10" stroke-linecap="round" stroke-linejoin="round"/>
<path d="M188.749 52.48L186.24 49.8688C183.808 47.3344 179.763 47.2832 177.383 49.8688C175.079 52.3776 174.336 56.96 177.459 62.0544C180.608 67.1488 188.723 70.6048 188.723 70.6048C188.723 70.6048 196.864 67.1488 199.987 62.0544C203.136 56.96 202.394 52.3776 200.064 49.8688C197.683 47.2832 193.639 47.3344 191.207 49.8688L188.749 52.48Z" fill="white"/>
<path d="M188.749 52.48L186.24 49.8688C183.808 47.3344 179.763 47.2832 177.383 49.8688C175.079 52.3776 174.336 56.96 177.459 62.0544C180.608 67.1488 188.723 70.6048 188.723 70.6048C188.723 70.6048 196.864 67.1488 199.987 62.0544C203.136 56.96 202.394 52.3776 200.064 49.8688C197.683 47.2832 193.639 47.3344 191.207 49.8688L188.749 52.48Z" stroke="#4E5A7D" stroke-width="3" stroke-miterlimit="10" stroke-linecap="round" stroke-linejoin="round"/>
<path d="M180.071 60.7488H184.115L186.087 55.5776L188.749 64.6656L190.643 60.5184L192.103 62.7968L194.048 55.5776L195.84 60.1344H198.067" stroke="#4E5A7D" stroke-width="3" stroke-miterlimit="10" stroke-linecap="round" stroke-linejoin="round"/>
<path d="M204.621 89.4464C204.621 89.4464 198.835 103.142 198.835 108.518C198.835 113.894 199.296 115.354 199.296 115.354C199.296 115.354 211.866 117.197 218.829 113.92C225.818 110.643 227.814 106.086 227.814 106.086C227.814 106.086 227.738 98.176 223.181 97.664C221.312 97.4592 218.675 97.792 217.728 100.25C216.422 103.629 217.344 104.883 217.344 104.883C216.269 103.808 214.528 102.298 211.046 102.298C207.565 102.298 205.722 106.086 205.722 106.086L205.978 95.0784L212.173 94.5408L213.325 89.4464L209.638 85.1456L204.621 89.4464Z" fill="white"/>
<path d="M204.621 89.4464C204.621 89.4464 198.835 103.142 198.835 108.518C198.835 113.894 199.296 115.354 199.296 115.354C199.296 115.354 211.866 117.197 218.829 113.92C225.818 110.643 227.814 106.086 227.814 106.086C227.814 106.086 227.738 98.176 223.181 97.664C221.312 97.4592 218.675 97.792 217.728 100.25C216.422 103.629 217.344 104.883 217.344 104.883C216.269 103.808 214.528 102.298 211.046 102.298C207.565 102.298 205.722 106.086 205.722 106.086L205.978 95.0784L212.173 94.5408L213.325 89.4464L209.638 85.1456L204.621 89.4464Z" stroke="#4E5A7D" stroke-width="3" stroke-miterlimit="10" stroke-linecap="round" stroke-linejoin="round"/>
<path d="M209.69 109.389C209.69 109.389 212.941 110.643 215.987 109.389" stroke="#4E5A7D" stroke-width="3" stroke-miterlimit="10" stroke-linecap="round" stroke-linejoin="round"/>
<path d="M202.189 109.926V112.922H204.621" stroke="#4E5A7D" stroke-width="3" stroke-miterlimit="10" stroke-linecap="round" stroke-linejoin="round"/>
<path d="M62.7969 60.1088C62.7969 60.1088 69.5809 46.8736 79.3089 44.2624C80.8961 43.8272 84.2241 43.3408 86.7841 45.2864C89.5489 47.4112 90.5729 51.8656 88.8321 55.0912C86.2721 59.8016 78.7201 59.9808 76.5441 57.5232C75.7505 56.6272 75.7761 55.5008 75.8017 55.2192C75.8529 52.608 78.8993 50.048 81.5617 50.432C83.0977 50.6624 84.0705 51.8144 84.1729 51.9168C86.1185 54.2976 85.3249 58.9312 82.3041 63.5648" stroke="#4E5A7D" stroke-width="3" stroke-miterlimit="10" stroke-linecap="round" stroke-linejoin="round"/>
<path d="M64.4096 60.6976L61.1072 59.1616C60.4928 58.88 59.6736 59.3664 59.264 60.2368C58.8544 61.1072 59.0336 62.0544 59.6224 62.336L59.8272 62.4384L56.9856 67.5584C56.1408 69.0688 56.3712 70.8096 57.472 71.3216C58.5728 71.8336 60.0576 70.8608 60.6464 69.248L62.72 63.7696L62.9248 63.872C63.5392 64.1536 64.3584 63.6672 64.768 62.7968C65.2032 61.9264 65.024 61.0048 64.4096 60.6976Z" fill="white"/>
<path d="M64.4096 60.6976L61.1072 59.1616C60.4928 58.88 59.6736 59.3664 59.264 60.2368C58.8544 61.1072 59.0336 62.0544 59.6224 62.336L59.8272 62.4384L56.9856 67.5584C56.1408 69.0688 56.3712 70.8096 57.472 71.3216C58.5728 71.8336 60.0576 70.8608 60.6464 69.248L62.72 63.7696L62.9248 63.872C63.5392 64.1536 64.3584 63.6672 64.768 62.7968C65.2032 61.9264 65.024 61.0048 64.4096 60.6976Z" stroke="#4E5A7D" stroke-width="3" stroke-miterlimit="10" stroke-linecap="round" stroke-linejoin="round"/>
<path d="M84.1985 63.104L80.7169 62.0288C80.0769 61.824 79.3345 62.4128 79.0529 63.3344C78.7713 64.256 79.0529 65.1776 79.7185 65.3568L79.9233 65.4336L77.8241 70.8864C77.2097 72.4992 77.6705 74.1888 78.8225 74.5472C79.9745 74.9056 81.3057 73.7536 81.6897 72.064L82.9953 66.3552L83.2001 66.432C83.8401 66.6368 84.5825 66.048 84.8641 65.1264C85.1457 64.2048 84.8385 63.3088 84.1985 63.104Z" fill="white"/>
<path d="M84.1985 63.104L80.7169 62.0288C80.0769 61.824 79.3345 62.4128 79.0529 63.3344C78.7713 64.256 79.0529 65.1776 79.7185 65.3568L79.9233 65.4336L77.8241 70.8864C77.2097 72.4992 77.6705 74.1888 78.8225 74.5472C79.9745 74.9056 81.3057 73.7536 81.6897 72.064L82.9953 66.3552L83.2001 66.432C83.8401 66.6368 84.5825 66.048 84.8641 65.1264C85.1457 64.2048 84.8385 63.3088 84.1985 63.104Z" stroke="#4E5A7D" stroke-width="3" stroke-miterlimit="10" stroke-linecap="round" stroke-linejoin="round"/>
<path d="M143.744 33.2544H145.613" stroke="white" stroke-width="2" stroke-miterlimit="10" stroke-linecap="round" stroke-linejoin="round"/>
<path d="M142.464 31.3344L143.744 29.5936" stroke="white" stroke-width="2" stroke-miterlimit="10" stroke-linecap="round" stroke-linejoin="round"/>
<path d="M143.36 32.128L145.28 30.9248" stroke="white" stroke-width="2" stroke-miterlimit="10" stroke-linecap="round" stroke-linejoin="round"/>
<path d="M86.6304 64.64H88.192" stroke="white" stroke-width="2" stroke-miterlimit="10" stroke-linecap="round" stroke-linejoin="round"/>
<path d="M85.5808 63.0528L86.6304 61.6192" stroke="white" stroke-width="2" stroke-miterlimit="10" stroke-linecap="round" stroke-linejoin="round"/>
<path d="M86.3232 63.7184L87.9104 62.72" stroke="white" stroke-width="2" stroke-miterlimit="10" stroke-linecap="round" stroke-linejoin="round"/>
<path d="M69.76 99.7632L71.5008 99.2768" stroke="white" stroke-width="2" stroke-miterlimit="10" stroke-linecap="round" stroke-linejoin="round"/>
<path d="M68.0703 98.3296L68.8127 96.384" stroke="white" stroke-width="2" stroke-miterlimit="10" stroke-linecap="round" stroke-linejoin="round"/>
<path d="M69.0942 98.8416L70.579 97.2288" stroke="white" stroke-width="2" stroke-miterlimit="10" stroke-linecap="round" stroke-linejoin="round"/>
<path d="M36.4286 117.632L35.9934 119.373" stroke="white" stroke-width="2" stroke-miterlimit="10" stroke-linecap="round" stroke-linejoin="round"/>
<path d="M34.9439 115.994L33.0239 116.787" stroke="white" stroke-width="2" stroke-miterlimit="10" stroke-linecap="round" stroke-linejoin="round"/>
<path d="M35.4815 116.992L33.9199 118.528" stroke="white" stroke-width="2" stroke-miterlimit="10" stroke-linecap="round" stroke-linejoin="round"/>
<path d="M66.6367 61.6192H68.4543" stroke="white" stroke-width="2" stroke-miterlimit="10" stroke-linecap="round" stroke-linejoin="round"/>
<path d="M65.408 59.776L66.6367 58.0864" stroke="white" stroke-width="2" stroke-miterlimit="10" stroke-linecap="round" stroke-linejoin="round"/>
<path d="M66.2527 60.544L68.1215 59.3664" stroke="white" stroke-width="2" stroke-miterlimit="10" stroke-linecap="round" stroke-linejoin="round"/>
<path d="M189.824 48.3328L190.694 46.6176" stroke="white" stroke-width="2" stroke-miterlimit="10" stroke-linecap="round" stroke-linejoin="round"/>
<path d="M187.878 48.5888L186.957 46.6176" stroke="white" stroke-width="2" stroke-miterlimit="10" stroke-linecap="round" stroke-linejoin="round"/>
<path d="M188.749 48.3328V45.5936" stroke="white" stroke-width="2" stroke-miterlimit="10" stroke-linecap="round" stroke-linejoin="round"/>
<path d="M216.218 99.8144L215.987 97.92" stroke="white" stroke-width="2" stroke-miterlimit="10" stroke-linecap="round" stroke-linejoin="round"/>
<path d="M214.758 101.12L212.915 99.9936" stroke="white" stroke-width="2" stroke-miterlimit="10" stroke-linecap="round" stroke-linejoin="round"/>
<path d="M215.322 100.429L213.811 98.1504" stroke="white" stroke-width="2" stroke-miterlimit="10" stroke-linecap="round" stroke-linejoin="round"/>
<path d="M81.2288 45.6448C81.2288 45.6448 83.4816 44.544 85.5552 46.6432" stroke="white" stroke-width="2" stroke-miterlimit="10" stroke-linecap="round" stroke-linejoin="round"/>
<path d="M58.2656 216.96H181.146" stroke="#4E5A7D" stroke-width="6" stroke-miterlimit="10" stroke-linecap="round" stroke-linejoin="round"/>
<path d="M188.186 216.96H197.018" stroke="#4E5A7D" stroke-width="6" stroke-miterlimit="10" stroke-linecap="round" stroke-linejoin="round"/>
<path d="M204.186 216.96H208.896" stroke="#4E5A7D" stroke-width="6" stroke-miterlimit="10" stroke-linecap="round" stroke-linejoin="round"/>
</svg>
