<?xml version="1.0" encoding="UTF-8" standalone="no"?>
<svg
   xmlns:dc="http://purl.org/dc/elements/1.1/"
   xmlns:cc="http://creativecommons.org/ns#"
   xmlns:rdf="http://www.w3.org/1999/02/22-rdf-syntax-ns#"
   xmlns:svg="http://www.w3.org/2000/svg"
   xmlns="http://www.w3.org/2000/svg"
   xmlns:sodipodi="http://sodipodi.sourceforge.net/DTD/sodipodi-0.dtd"
   xmlns:inkscape="http://www.inkscape.org/namespaces/inkscape"
   width="486"
   height="486"
   viewBox="0 0 486 486"
   fill="none"
   version="1.1"
   id="svg498"
   sodipodi:docname="gym-guy.svg"
   inkscape:version="1.0.1 (c497b03c, 2020-09-10)">
  <metadata
     id="metadata504">
    <rdf:RDF>
      <cc:Work
         rdf:about="">
        <dc:format>image/svg+xml</dc:format>
        <dc:type
           rdf:resource="http://purl.org/dc/dcmitype/StillImage" />
        <dc:title></dc:title>
      </cc:Work>
    </rdf:RDF>
  </metadata>
  <defs
     id="defs502" />
  <sodipodi:namedview
     pagecolor="#ffffff"
     bordercolor="#666666"
     borderopacity="1"
     objecttolerance="10"
     gridtolerance="10"
     guidetolerance="10"
     inkscape:pageopacity="0"
     inkscape:pageshadow="2"
     inkscape:window-width="1669"
     inkscape:window-height="1028"
     id="namedview500"
     showgrid="false"
     inkscape:zoom="1.0677857"
     inkscape:cx="304.37464"
     inkscape:cy="279.88224"
     inkscape:window-x="0"
     inkscape:window-y="223"
     inkscape:window-maximized="0"
     inkscape:current-layer="svg498" />
  <path
     d="m 354.94792,177.88504 c -10.88,6.72 14.592,79.872 26.368,78.208 7.36,-1.024 15.616,-32.192 1.408,-56.128 -7.424,-12.608 -22.4,-25.408 -27.776,-22.08 z"
     fill="#880061"
     id="path276" />
  <path
     d="m 170.94792,117.91704 c -18.56,7.872 -39.36,16.896 -47.936,37.12 -13.824,32.512 17.984,58.048 2.88,90.176 -8.768,18.56 -20.992,13.376 -38.336002,35.072 -20.608,25.856 -32.64,70.016 -14.656,104.704 13.696,26.496 39.424002,36.928 61.312002,45.824 7.552,3.072 57.536,22.656 105.088,6.272 11.392,-3.904 16,-9.536 25.728,-8.576 23.552,2.432 27.072,33.856 48.576,38.976 18.048,4.288 39.04,-12.288 52.288,-28.928 2.624,-3.328 4.992,-6.656 6.976,-9.856 11.52,-22.208 20.8,-47.872 23.232,-73.6 0.576,-6.464 0.768,-12.864 0.448,-19.264 -1.216,-16.384 -4.544,-32.32 -14.592,-46.848 -18.048,-27.84 -45.504,-49.664 -45.632,-84.352 -0.768,-5.248 -1.28,-10.688 -1.792,-16.192 -2.624,-27.648 -4.864,-57.28 -32.192,-74.944 -36.16,-23.167996 -78.336,-13.888 -114.752,-1.6 -6.016,1.856 -11.52,3.84 -16.64,6.016 z"
     fill="#880061"
     id="path278" />
  <path
     d="m 24.451918,227.42104 -3.008,0.384 c -2.752,0.384 -5.248,-1.536 -5.632,-4.288 l -4.0321,-29.824 c -0.384,-2.752 1.536,-5.248 4.2881,-5.632 l 3.008,-0.384 c 2.752,-0.384 5.248,1.536 5.632,4.288 l 4.032,29.824 c 0.384,2.752 -1.536,5.248 -4.288,5.632 z"
     fill="#ffffff"
     id="path280" />
  <path
     d="m 10.691918,222.87704 c -2.7519996,0.384 -5.2479996,-1.536 -5.6319996,-4.288 l -2.304,-17.28 c -0.384,-2.752 1.536,-5.248 4.288,-5.632 2.752,-0.384 5.2479996,1.536 5.6319996,4.288 l 2.304,17.216 c 0.384,2.752 -1.536,5.312 -4.288,5.696 z"
     fill="#ffffff"
     id="path282" />
  <path
     d="m 71.491918,221.08504 3.008,-0.384 c 2.752,-0.384 4.672,-2.88 4.288,-5.632 l -4.032,-29.824 c -0.384,-2.752 -2.88,-4.672 -5.632,-4.288 l -3.008,0.384 c -2.752,0.384 -4.672,2.88 -4.288,5.632 l 4.032,29.824 c 0.384,2.752 2.88,4.672 5.632,4.288 z"
     fill="#ffffff"
     id="path284" />
  <path
     d="m 83.587918,213.02104 c 2.752,-0.384 4.672,-2.88 4.288,-5.632 l -2.304,-17.216 c -0.384,-2.752 -2.88,-4.672 -5.632,-4.288 -2.752,0.384 -4.672,2.88 -4.288,5.632 l 2.304,17.216 c 0.32,2.752 2.88,4.672 5.632,4.288 z"
     fill="#ffffff"
     id="path286" />
  <path
     d="m 27.465918,211.97604 37.106,-4.991 -1.382,-10.276 -37.106,4.991 z"
     fill="#ffffff"
     id="path288" />
  <path
     d="m 24.451918,227.42104 -3.008,0.384 c -2.752,0.384 -5.248,-1.536 -5.632,-4.288 l -4.0321,-29.824 c -0.384,-2.752 1.536,-5.248 4.2881,-5.632 l 3.008,-0.384 c 2.752,-0.384 5.248,1.536 5.632,4.288 l 4.032,29.824 c 0.384,2.752 -1.536,5.248 -4.288,5.632 z"
     stroke="#4e5a7d"
     stroke-width="3"
     stroke-miterlimit="10"
     stroke-linecap="round"
     stroke-linejoin="round"
     id="path290" />
  <path
     d="m 10.691918,222.87704 c -2.7519996,0.384 -5.2479996,-1.536 -5.6319996,-4.288 l -2.304,-17.28 c -0.384,-2.752 1.536,-5.248 4.288,-5.632 2.752,-0.384 5.2479996,1.536 5.6319996,4.288 l 2.304,17.216 c 0.384,2.752 -1.536,5.312 -4.288,5.696 z"
     stroke="#4e5a7d"
     stroke-width="3"
     stroke-miterlimit="10"
     stroke-linecap="round"
     stroke-linejoin="round"
     id="path292" />
  <path
     d="m 71.491918,221.08504 3.008,-0.384 c 2.752,-0.384 4.672,-2.88 4.288,-5.632 l -4.032,-29.824 c -0.384,-2.752 -2.88,-4.672 -5.632,-4.288 l -3.008,0.384 c -2.752,0.384 -4.672,2.88 -4.288,5.632 l 4.032,29.824 c 0.384,2.752 2.88,4.672 5.632,4.288 z"
     stroke="#4e5a7d"
     stroke-width="3"
     stroke-miterlimit="10"
     stroke-linecap="round"
     stroke-linejoin="round"
     id="path294" />
  <path
     d="m 83.587918,213.02104 c 2.752,-0.384 4.672,-2.88 4.288,-5.632 l -2.304,-17.216 c -0.384,-2.752 -2.88,-4.672 -5.632,-4.288 -2.752,0.384 -4.672,2.88 -4.288,5.632 l 2.304,17.216 c 0.32,2.752 2.88,4.672 5.632,4.288 z"
     stroke="#4e5a7d"
     stroke-width="3"
     stroke-miterlimit="10"
     stroke-linecap="round"
     stroke-linejoin="round"
     id="path296" />
  <path
     d="m 27.465918,211.97604 37.106,-4.991 -1.382,-10.276 -37.106,4.991 z"
     stroke="#4e5a7d"
     stroke-width="3"
     stroke-miterlimit="10"
     stroke-linecap="round"
     stroke-linejoin="round"
     id="path298" />
  <path
     d="m 313.34792,410.07704 h -138.624 l 5.184,-22.208 c 2.688,-11.52 16.896,-19.904 33.536,-19.904 h 61.184 c 16.64,0 30.848,8.448 33.536,19.904 z"
     fill="#e08484"
     id="path300" />
  <path
     d="m 313.34792,410.07704 h -138.624 l 5.184,-22.208 c 2.688,-11.52 16.896,-19.904 33.536,-19.904 h 61.184 c 16.64,0 30.848,8.448 33.536,19.904 z"
     stroke="#4e5a7d"
     stroke-width="6"
     stroke-miterlimit="10"
     stroke-linecap="round"
     stroke-linejoin="round"
     id="path302" />
  <path
     d="m 293.95592,393.18104 h -17.408 c -6.656,0 -12.032,-5.376 -12.032,-12.032 v -27.584 h -40.96 v 27.584 c 0,6.656 -5.376,12.032 -12.032,12.032 h -17.408 c -25.472,0 -46.08,20.608 -46.08,46.08 v 37.568 h 192 v -37.568 c 0,-25.472 -20.672,-46.08 -46.08,-46.08 z"
     fill="#fbe3d5"
     id="path304" />
  <path
     d="m 243.26792,366.23704 c 11.735,0 21.248,-5.587 21.248,-12.48 0,-6.892 -9.513,-12.48 -21.248,-12.48 -11.735,0 -21.248,5.588 -21.248,12.48 0,6.893 9.513,12.48 21.248,12.48 z"
     fill="#d5b6a5"
     id="path306" />
  <path
     d="m 340.03592,439.26104 v 37.568 h -192 v -37.568 c 0,-25.472 20.608,-46.08 46.08,-46.08 h 17.408 c 0.448,0 0.896,0 1.344,-0.064 4.736,12.864 17.152,22.08 31.68,22.08 14.528,0 26.88,-9.152 31.616,-22.016 0.128,0 0.256,0 0.448,0 h 17.344 c 25.408,0 46.08,20.608 46.08,46.08 z"
     fill="#e08484"
     id="path308" />
  <path
     d="m 226.11592,441.56504 c -17.984,0 -32.64,-14.656 -32.64,-32.64 v -15.872 h 102.336 v 15.872 c 0,17.984 -14.656,32.64 -32.64,32.64 z"
     fill="#d87171"
     id="path310" />
  <path
     d="m 293.95592,393.18104 h -17.408 c -6.656,0 -12.032,-5.376 -12.032,-12.032 v -27.584 h -40.96 v 27.584 c 0,6.656 -5.376,12.032 -12.032,12.032 h -17.408 c -25.472,0 -46.08,20.608 -46.08,46.08 v 37.568 h 192 v -37.568 c 0,-25.472 -20.672,-46.08 -46.08,-46.08 z"
     stroke="#4e5a7d"
     stroke-width="6"
     stroke-miterlimit="10"
     stroke-linecap="round"
     stroke-linejoin="round"
     id="path312" />
  <path
     d="m 288.51592,199.51804 c -0.704,-9.728 1.856,-17.088 6.4,-18.688 4.48,-1.6 9.728,2.816 11.52,4.352 16.96,14.208 6.528,61.76 3.648,73.984 z"
     fill="#bcafaa"
     id="path314" />
  <path
     d="m 287.23592,199.51704 c -0.704,-9.728 1.856,-17.088 6.4,-18.688 0.896,-0.32 1.792,-0.384 2.688,-0.32"
     stroke="#4e5a7d"
     stroke-width="6"
     stroke-miterlimit="10"
     stroke-linecap="round"
     stroke-linejoin="round"
     id="path316" />
  <path
     d="m 297.60392,180.50904 c 3.712,0.32 7.36,3.392 8.832,4.672 16.96,14.208 6.528,61.76 3.648,73.984 l -21.568,-59.584"
     stroke="#4e5a7d"
     stroke-width="6"
     stroke-miterlimit="10"
     stroke-linecap="round"
     stroke-linejoin="round"
     id="path318" />
  <path
     d="m 177.15592,263.51704 v -21.568 c 0,-24.512 21.696,-18.176 46.144,-18.176 l 45.248,1.728 c 14.208,0 22.784,-21.184 30.848,-10.816 -0.256,-7.552 -1.664,-17.152 -6.08,-27.2 -2.432,-5.632 -12.608,-26.944 -36.032,-36.736 -7.936,-3.328 -14.528,-4.096 -18.56,-4.544 -15.424,-1.728 -21.76,-4.48 -48.256,2.88 -16.768,4.608 -28.8,12.992 -28.992,16.64 -0.192,3.328 7.936,2.496 14.592,7.488 10.816,8.064 -4.288,26.24 -6.4,49.28 -0.896,9.856 -0.064,23.68 7.488,41.024 z"
     fill="#bcafaa"
     id="path320" />
  <path
     d="m 296.32392,195.67704 c -0.832,-3.328 -2.496,-6.976 -3.008,-8.192 -2.432,-5.632 -12.608,-26.944 -36.032,-36.736 -7.936,-3.328 -14.528,-4.096 -18.56,-4.544 -15.424,-1.728 -25.856,-3.392 -52.352,3.968 -16.768,4.608 -26.24,8.512 -24.896,15.552 0.832,4.416 10.752,3.2 16.512,11.52 7.68,11.136 -6.208,22.208 -8.32,45.312 -0.896,9.856 -0.064,23.68 7.488,41.024 v -21.568 c 0,-24.512 21.696,-18.176 46.144,-18.176 l 45.248,1.728 c 14.208,0 22.784,-21.184 30.848,-10.816"
     stroke="#4e5a7d"
     stroke-width="6"
     stroke-miterlimit="10"
     stroke-linecap="round"
     stroke-linejoin="round"
     id="path322" />
  <path
     d="m 297.15592,211.93304 c -3.2,-3.456 -8,-4.928 -12.608,-3.968 -11.456,2.432 -25.408,3.84 -40.512,3.84 -15.744,0 -30.272,-1.536 -42.048,-4.16 -4.608,-1.024 -9.472,0.384 -12.672,3.84 -7.488,7.936 -12.096,18.624 -12.096,30.4 v 54.656 c 0,35.072 28.48,63.552 63.552,63.552 h 4.608 c 35.072,0 63.552,-28.48 63.552,-63.552 v -54.656 c -0.064,-11.52 -4.544,-22.016 -11.776,-29.952 z"
     fill="#fbe3d5"
     id="path324" />
  <path
     d="m 245.31592,352.28504 h -4.608 c -35.072,0 -63.552,-28.48 -63.552,-63.552 v 6.592 c 0,35.072 28.48,63.552 63.552,63.552 h 4.608 c 35.072,0 63.552,-28.48 63.552,-63.552 v -6.592 c 0,35.072 -28.48,63.552 -63.552,63.552 z"
     fill="#d5b6a5"
     id="path326" />
  <path
     d="m 247.49192,299.86904 c 0,0 6.464,-1.984 9.472,-1.024 2.176,-9.408 -4.48,-17.984 -4.48,-17.984"
     stroke="#4e5a7d"
     stroke-width="6"
     stroke-miterlimit="10"
     stroke-linecap="round"
     stroke-linejoin="round"
     id="path328" />
  <path
     d="m 260.41992,327.00504 c -3.712,2.432 -8.448,3.904 -13.696,3.904 -11.648,0 -21.12,-7.296 -21.12,-16.256"
     stroke="#4e5a7d"
     stroke-width="6"
     stroke-miterlimit="10"
     stroke-linecap="round"
     stroke-linejoin="round"
     id="path330" />
  <path
     d="m 223.29992,267.42104 c 3.605,0 6.528,-3.667 6.528,-8.192 0,-4.524 -2.923,-8.192 -6.528,-8.192 -3.605,0 -6.528,3.668 -6.528,8.192 0,4.525 2.923,8.192 6.528,8.192 z"
     fill="#4e5a7d"
     id="path332" />
  <path
     d="m 271.68392,267.10104 c 3.605,0 6.528,-3.668 6.528,-8.192 0,-4.524 -2.923,-8.192 -6.528,-8.192 -3.605,0 -6.528,3.668 -6.528,8.192 0,4.524 2.923,8.192 6.528,8.192 z"
     fill="#4e5a7d"
     id="path334" />
  <path
     d="m 284.54792,208.02904 c -11.456,2.432 -25.408,3.84 -40.512,3.84 -15.744,0 -30.272,-1.536 -42.048,-4.16 -4.608,-1.024 -9.472,0.384 -12.672,3.84 -7.488,7.936 -12.096,18.624 -12.096,30.4 v 3.584 c 21.568,1.536 43.456,2.368 65.088,2.368 22.144,0 44.48,-0.832 66.624,-2.496 v -3.456 c 0,-11.584 -4.416,-22.08 -11.712,-30.016 -3.264,-3.456 -8.064,-4.928 -12.672,-3.904 z"
     fill="#d5b6a5"
     id="path336" />
  <path
     d="m 297.15592,211.93304 c -3.2,-3.456 -8,-4.928 -12.608,-3.968 -11.456,2.432 -25.408,3.84 -40.512,3.84 -15.744,0 -30.272,-1.536 -42.048,-4.16 -4.608,-1.024 -9.472,0.384 -12.672,3.84 -7.488,7.936 -12.096,18.624 -12.096,30.4 v 54.656 c 0,35.072 28.48,63.552 63.552,63.552 h 4.608 c 35.072,0 63.552,-28.48 63.552,-63.552 v -54.656 c -0.064,-11.52 -4.544,-22.016 -11.776,-29.952 z"
     stroke="#4e5a7d"
     stroke-width="6"
     stroke-miterlimit="10"
     stroke-linecap="round"
     stroke-linejoin="round"
     id="path338" />
  <path
     d="m 311.04392,240.73304 c -45.824,2.688 -91.84,2.688 -137.664,0 -3.2,-0.192 -5.696,-2.624 -5.696,-5.632 v -14.592 c 0,-3.264 3.008,-5.824 6.528,-5.632 45.312,2.688 90.752,2.688 136.064,0 3.52,-0.192 6.528,2.368 6.528,5.632 v 14.592 c 0,3.008 -2.496,5.44 -5.76,5.632 z"
     fill="#84bde1"
     id="path340" />
  <path
     opacity="0.3"
     d="m 310.27592,214.94104 c -45.312,2.688 -90.752,2.688 -136.064,0 -3.52,-0.192 -6.528,2.368 -6.528,5.632 v 4.864 c 0,-3.264 3.008,-5.824 6.528,-5.632 45.312,2.688 90.752,2.688 136.064,0 3.52,-0.192 6.528,2.368 6.528,5.632 v -4.928 c 0,-3.2 -3.008,-5.76 -6.528,-5.568 z"
     fill="#84bde1"
     id="path342" />
  <path
     d="m 311.04392,240.73304 c -45.824,2.688 -91.84,2.688 -137.664,0 -3.2,-0.192 -5.696,-2.624 -5.696,-5.632 v -14.592 c 0,-3.264 3.008,-5.824 6.528,-5.632 45.312,2.688 90.752,2.688 136.064,0 3.52,-0.192 6.528,2.368 6.528,5.632 v 14.592 c 0,3.008 -2.496,5.44 -5.76,5.632 z"
     stroke="#4e5a7d"
     stroke-width="6"
     stroke-miterlimit="10"
     stroke-linecap="round"
     stroke-linejoin="round"
     id="path344" />
  <path
     d="m 293.31592,186.39704 c 0,0 13.184,0 15.488,25.024"
     stroke="#4e5a7d"
     stroke-width="4"
     stroke-miterlimit="10"
     stroke-linecap="round"
     stroke-linejoin="round"
     id="path346" />
  <path
     d="m 219.52392,155.42104 c 27.2,1.408 52.608,14.976 55.68,38.592"
     stroke="#4e5a7d"
     stroke-width="4"
     stroke-miterlimit="10"
     stroke-linecap="round"
     stroke-linejoin="round"
     id="path348" />
  <path
     d="m 200.96392,157.46904 c 3.52,-1.088 8,-2.112 12.608,-2.048"
     stroke="#4e5a7d"
     stroke-width="4"
     stroke-miterlimit="10"
     stroke-linecap="round"
     stroke-linejoin="round"
     id="path350" />
  <path
     d="m 221.76392,170.01304 c 14.72,2.368 33.792,4.672 40.896,28.928"
     stroke="#4e5a7d"
     stroke-width="4"
     stroke-miterlimit="10"
     stroke-linecap="round"
     stroke-linejoin="round"
     id="path352" />
  <path
     d="m 242.24392,338.46104 c 0,0 3.648,2.176 10.24,0"
     stroke="#4e5a7d"
     stroke-width="6"
     stroke-miterlimit="10"
     stroke-linecap="round"
     stroke-linejoin="round"
     id="path354" />
  <path
     d="m 212.73992,304.86104 c 6.645,0 12.032,-5.387 12.032,-12.032 0,-6.645 -5.387,-12.032 -12.032,-12.032 -6.645,0 -12.032,5.387 -12.032,12.032 0,6.645 5.387,12.032 12.032,12.032 z"
     fill="#f5cfc4"
     id="path356" />
  <path
     d="m 276.22792,304.86104 c 6.645,0 12.032,-5.387 12.032,-12.032 0,-6.645 -5.387,-12.032 -12.032,-12.032 -6.645,0 -12.032,5.387 -12.032,12.032 0,6.645 5.387,12.032 12.032,12.032 z"
     fill="#f5cfc4"
     id="path358" />
  <path
     d="m 175.36392,279.58104 h 1.28 v -33.664 h -1.28 c -4.224,0 -7.68,3.456 -7.68,7.68 v 18.304 c 0,4.224 3.456,7.68 7.68,7.68 z"
     fill="#fef0e3"
     id="path360" />
  <path
     d="m 175.36392,279.58104 h 1.28 v -33.664 h -1.28 c -4.224,0 -7.68,3.456 -7.68,7.68 v 18.304 c 0,4.224 3.456,7.68 7.68,7.68 z"
     stroke="#4e5a7d"
     stroke-width="6"
     stroke-miterlimit="10"
     stroke-linecap="round"
     stroke-linejoin="round"
     id="path362" />
  <path
     d="m 310.14792,279.58104 h -1.28 v -33.664 h 1.28 c 4.224,0 7.68,3.456 7.68,7.68 v 18.304 c 0,4.224 -3.456,7.68 -7.68,7.68 z"
     fill="#fef0e3"
     id="path364" />
  <path
     d="m 310.14792,279.58104 h -1.28 v -33.664 h 1.28 c 4.224,0 7.68,3.456 7.68,7.68 v 18.304 c 0,4.224 -3.456,7.68 -7.68,7.68 z"
     stroke="#4e5a7d"
     stroke-width="6"
     stroke-miterlimit="10"
     stroke-linecap="round"
     stroke-linejoin="round"
     id="path366" />
  <path
     d="m 263.17192,436.44504 h -37.056 c -15.168,0 -27.52,-12.352 -27.52,-27.52 v -25.6 h 92.096 v 25.6 c 0,15.232 -12.288,27.52 -27.52,27.52 z"
     fill="#e08484"
     id="path368" />
  <path
     d="m 290.69192,383.32504 v 25.6 c 0,15.168 -12.352,27.52 -27.52,27.52 h -37.056 c -15.168,0 -27.52,-12.352 -27.52,-27.52 v -25.6"
     stroke="#4e5a7d"
     stroke-width="6"
     stroke-miterlimit="10"
     stroke-linecap="round"
     stroke-linejoin="round"
     id="path370" />
  <path
     d="m 276.09992,393.18104 c -4.736,12.864 -17.152,22.016 -31.616,22.016 -14.528,0 -26.944,-9.216 -31.68,-22.08 6.016,-0.64 10.752,-5.76 10.752,-11.968 v -2.24 h 40.96 v 2.24 c 0,6.464 5.12,11.776 11.584,12.032 z"
     fill="#fbe3d5"
     id="path372" />
  <path
     d="m 271.74792,392.15704 c -4.288,11.136 -14.976,18.56 -27.264,18.56 -12.416,0 -23.168,-7.616 -27.392,-18.944 -1.28,0.704 -2.752,1.152 -4.288,1.344 4.736,12.864 17.152,22.08 31.68,22.08 14.528,0 26.88,-9.152 31.616,-22.016 -1.536,-0.064 -3.008,-0.448 -4.352,-1.024 z"
     fill="#edd4c6"
     id="path374" />
  <path
     d="m 264.51592,378.84504 v 2.24 c 0,5.568 3.776,10.304 8.96,11.648 1.344,0.384 2.112,1.856 1.536,3.136 -5.44,11.392 -17.024,19.264 -30.464,19.264 -13.568,0 -25.216,-8 -30.592,-19.52 -0.576,-1.216 0.064,-2.688 1.408,-3.072 4.8,-1.6 8.256,-6.08 8.256,-11.456 v -2.24"
     stroke="#4e5a7d"
     stroke-width="6"
     stroke-miterlimit="10"
     stroke-linecap="round"
     stroke-linejoin="round"
     id="path376" />
  <path
     d="m 211.58792,389.02104 c 3.456,14.976 16.832,26.176 32.896,26.176 16.064,0 29.44,-11.2 32.896,-26.176"
     stroke="#4e5a7d"
     stroke-width="6"
     stroke-miterlimit="10"
     stroke-linecap="round"
     stroke-linejoin="round"
     id="path378" />
  <path
     d="m 220.80392,425.24504 c 2.827,0 5.12,-1.318 5.12,-2.944 0,-1.626 -2.293,-2.944 -5.12,-2.944 -2.828,0 -5.12,1.318 -5.12,2.944 0,1.626 2.292,2.944 5.12,2.944 z"
     fill="#4e5a7d"
     id="path380" />
  <path
     d="m 220.80392,422.30104 v 33.344"
     stroke="#4e5a7d"
     stroke-width="8"
     stroke-miterlimit="10"
     stroke-linecap="round"
     stroke-linejoin="round"
     id="path382" />
  <path
     d="m 267.20392,425.24504 c 2.828,0 5.12,-1.318 5.12,-2.944 0,-1.626 -2.292,-2.944 -5.12,-2.944 -2.828,0 -5.12,1.318 -5.12,2.944 0,1.626 2.292,2.944 5.12,2.944 z"
     fill="#4e5a7d"
     id="path384" />
  <path
     d="m 267.20392,422.30104 v 24.384"
     stroke="#4e5a7d"
     stroke-width="8"
     stroke-miterlimit="10"
     stroke-linecap="round"
     stroke-linejoin="round"
     id="path386" />
  <path
     d="m 222.65992,464.47704 h -3.84 c -2.432,0 -4.224,-2.24 -3.648,-4.608 l 1.664,-7.424 h 7.808 l 1.664,7.424 c 0.576,2.368 -1.216,4.608 -3.648,4.608 z"
     fill="#fef0e3"
     id="path388" />
  <path
     d="m 222.65992,464.47704 h -3.84 c -2.432,0 -4.224,-2.24 -3.648,-4.608 l 1.664,-7.424 h 7.808 l 1.664,7.424 c 0.576,2.368 -1.216,4.608 -3.648,4.608 z"
     stroke="#4e5a7d"
     stroke-width="6"
     stroke-miterlimit="10"
     stroke-linecap="round"
     stroke-linejoin="round"
     id="path390" />
  <path
     d="m 269.12392,458.46104 h -3.84 c -2.432,0 -4.224,-2.24 -3.648,-4.608 l 1.664,-7.424 h 7.808 l 1.664,7.424 c 0.576,2.368 -1.216,4.608 -3.648,4.608 z"
     fill="#fef0e3"
     id="path392" />
  <path
     d="m 269.12392,458.46104 h -3.84 c -2.432,0 -4.224,-2.24 -3.648,-4.608 l 1.664,-7.424 h 7.808 l 1.664,7.424 c 0.576,2.368 -1.216,4.608 -3.648,4.608 z"
     stroke="#4e5a7d"
     stroke-width="6"
     stroke-miterlimit="10"
     stroke-linecap="round"
     stroke-linejoin="round"
     id="path394" />
  <path
     opacity="0.58"
     d="m 238.91592,390.55704 c 0,0 2.048,0.192 4.352,2.56 0,0 2.688,-2.56 4.992,-2.56"
     stroke="#d5b6a5"
     stroke-width="6"
     stroke-miterlimit="10"
     stroke-linecap="round"
     stroke-linejoin="round"
     id="path396" />
  <path
     d="m 246.72392,196.25304 c 0,0 -1.408,-8.064 -15.616,-12.48"
     stroke="#4e5a7d"
     stroke-width="4"
     stroke-miterlimit="10"
     stroke-linecap="round"
     stroke-linejoin="round"
     id="path398" />
  <path
     d="m 187.13992,452.44504 v 24.384"
     stroke="#4e5a7d"
     stroke-width="6"
     stroke-miterlimit="10"
     stroke-linecap="round"
     stroke-linejoin="round"
     id="path400" />
  <path
     d="m 299.45992,452.44504 v 24.384"
     stroke="#4e5a7d"
     stroke-width="6"
     stroke-miterlimit="10"
     stroke-linecap="round"
     stroke-linejoin="round"
     id="path402" />
  <path
     d="m 263.49192,71.581044 h -33.536 c -3.52,0 -6.4,-2.88 -6.4,-6.4 v -41.7924 c 0,-3.52 2.88,-6.4 6.4,-6.4 h 33.536 c 3.52,0 6.4,2.88 6.4,6.4 v 41.7924 c 0,3.52 -2.88,6.4 -6.4,6.4 z"
     fill="#ffffff"
     id="path404" />
  <path
     d="m 263.49192,71.581044 h -33.536 c -3.52,0 -6.4,-2.88 -6.4,-6.4 v -41.7924 c 0,-3.52 2.88,-6.4 6.4,-6.4 h 33.536 c 3.52,0 6.4,2.88 6.4,6.4 v 41.7924 c 0,3.52 -2.88,6.4 -6.4,6.4 z"
     stroke="#4e5a7d"
     stroke-width="3"
     stroke-miterlimit="10"
     stroke-linecap="round"
     stroke-linejoin="round"
     id="path406" />
  <path
     d="m 266.75592,83.165044 c 7.104,0 12.864,-5.76 12.864,-12.864 0,-7.105 -5.76,-12.864 -12.864,-12.864 -7.105,0 -12.864,5.759 -12.864,12.864 0,7.104 5.759,12.864 12.864,12.864 z"
     fill="#ffffff"
     id="path408" />
  <path
     d="m 266.75592,83.165044 c 7.104,0 12.864,-5.76 12.864,-12.864 0,-7.105 -5.76,-12.864 -12.864,-12.864 -7.105,0 -12.864,5.759 -12.864,12.864 0,7.104 5.759,12.864 12.864,12.864 z"
     stroke="#4e5a7d"
     stroke-width="3"
     stroke-miterlimit="10"
     stroke-linecap="round"
     stroke-linejoin="round"
     id="path410" />
  <path
     d="m 260.86792,70.173044 4.032,4.032 7.744,-7.808"
     stroke="#4e5a7d"
     stroke-width="4"
     stroke-miterlimit="10"
     stroke-linecap="round"
     stroke-linejoin="round"
     id="path412" />
  <path
     d="m 250.81992,13.596844 v -5.312 c 0,-2.3040004 -1.856,-4.1600004 -4.16,-4.1600004 -2.304,0 -4.16,1.856 -4.16,4.1600004 v 5.312 h -4.544 v 1.664 5.568 h 17.408 v -5.568 -1.664 z"
     fill="#ffffff"
     id="path414" />
  <path
     d="m 250.81992,14.108644 v -4.928 c 0,-2.112 -1.856,-3.8400004 -4.16,-3.8400004 -2.304,0 -4.16,1.7280004 -4.16,3.8400004 v 4.928 h -4.544 v 1.536 5.184 h 17.408 v -5.184 -1.536 z"
     stroke="#4e5a7d"
     stroke-width="3"
     stroke-miterlimit="10"
     stroke-linecap="round"
     stroke-linejoin="round"
     id="path416" />
  <path
     d="m 235.90792,36.317044 h 23.808"
     stroke="#4e5a7d"
     stroke-width="3"
     stroke-miterlimit="10"
     stroke-linecap="round"
     stroke-linejoin="round"
     id="path418" />
  <path
     d="m 235.90792,44.253044 h 23.808"
     stroke="#4e5a7d"
     stroke-width="3"
     stroke-miterlimit="10"
     stroke-linecap="round"
     stroke-linejoin="round"
     id="path420" />
  <path
     d="m 240.25992,51.933044 h 15.104"
     stroke="#4e5a7d"
     stroke-width="3"
     stroke-miterlimit="10"
     stroke-linecap="round"
     stroke-linejoin="round"
     id="path422" />
  <path
     d="m 385.66792,65.629044 -6.272,-6.528 c -6.08,-6.336 -16.192,-6.464 -22.144,0 -5.76,6.272 -7.616,17.728 0.192,30.464 7.872,12.735996 28.16,21.375996 28.16,21.375996 0,0 20.352,-8.64 28.16,-21.375996 7.872,-12.736 6.016,-24.192 0.192,-30.464 -5.952,-6.464 -16.064,-6.336 -22.144,0 z"
     fill="#ffffff"
     id="path424" />
  <path
     d="m 385.66792,65.629044 -6.272,-6.528 c -6.08,-6.336 -16.192,-6.464 -22.144,0 -5.76,6.272 -7.616,17.728 0.192,30.464 7.872,12.735996 28.16,21.375996 28.16,21.375996 0,0 20.352,-8.64 28.16,-21.375996 7.872,-12.736 6.016,-24.192 0.192,-30.464 -5.952,-6.464 -16.064,-6.336 -22.144,0 z"
     stroke="#4e5a7d"
     stroke-width="3"
     stroke-miterlimit="10"
     stroke-linecap="round"
     stroke-linejoin="round"
     id="path426" />
  <path
     d="m 363.97192,86.301044 h 10.112 l 4.928,-12.928 6.656,22.719996 4.736,-10.367996 3.648,5.696 4.864,-18.048 4.48,11.392 h 5.568"
     stroke="#4e5a7d"
     stroke-width="3"
     stroke-miterlimit="10"
     stroke-linecap="round"
     stroke-linejoin="round"
     id="path428" />
  <path
     d="m 425.34792,158.04504 c 0,0 -14.464,34.24 -14.464,47.68 0,13.44 1.152,17.088 1.152,17.088 0,0 31.424,4.608 48.832,-3.584 17.472,-8.192 22.464,-19.584 22.464,-19.584 0,0 -0.192,-19.776 -11.584,-21.056 -4.672,-0.512 -11.264,0.32 -13.632,6.464 -3.264,8.448 -0.96,11.584 -0.96,11.584 -2.688,-2.688 -7.04,-6.464 -15.744,-6.464 -8.704,0 -13.312,9.472 -13.312,9.472 l 0.64,-27.52 15.488,-1.344 2.88,-12.736 -9.216,-10.752 z"
     fill="#ffffff"
     id="path430" />
  <path
     d="m 425.34792,158.04504 c 0,0 -14.464,34.24 -14.464,47.68 0,13.44 1.152,17.088 1.152,17.088 0,0 31.424,4.608 48.832,-3.584 17.472,-8.192 22.464,-19.584 22.464,-19.584 0,0 -0.192,-19.776 -11.584,-21.056 -4.672,-0.512 -11.264,0.32 -13.632,6.464 -3.264,8.448 -0.96,11.584 -0.96,11.584 -2.688,-2.688 -7.04,-6.464 -15.744,-6.464 -8.704,0 -13.312,9.472 -13.312,9.472 l 0.64,-27.52 15.488,-1.344 2.88,-12.736 -9.216,-10.752 z"
     stroke="#4e5a7d"
     stroke-width="3"
     stroke-miterlimit="10"
     stroke-linecap="round"
     stroke-linejoin="round"
     id="path432" />
  <path
     d="m 438.01992,207.90104 c 0,0 8.128,3.136 15.744,0"
     stroke="#4e5a7d"
     stroke-width="3"
     stroke-miterlimit="10"
     stroke-linecap="round"
     stroke-linejoin="round"
     id="path434" />
  <path
     d="m 419.26792,209.24404 v 7.488 h 6.08"
     stroke="#4e5a7d"
     stroke-width="3"
     stroke-miterlimit="10"
     stroke-linecap="round"
     stroke-linejoin="round"
     id="path436" />
  <path
     d="m 70.787918,84.701044 c 0,0 16.96,-33.088 41.280002,-39.616 3.968,-1.088 12.288,-2.304 18.688,2.56 6.912,5.312 9.472,16.448 5.12,24.512 -6.4,11.776 -25.28,12.224 -30.72,6.08 -1.984,-2.24 -1.92,-5.056 -1.856,-5.76 0.128,-6.528 7.744,-12.928 14.4,-11.968 3.84,0.576 6.272,3.456 6.528,3.712 4.864,5.952 2.88,17.536 -4.672,29.12"
     stroke="#4e5a7d"
     stroke-width="3"
     stroke-miterlimit="10"
     stroke-linecap="round"
     stroke-linejoin="round"
     id="path438" />
  <path
     d="m 74.819918,86.173044 -8.256,-3.84 c -1.536,-0.704 -3.584,0.512 -4.608,2.688 -1.024,2.176 -0.576,4.544 0.896,5.248 l 0.512,0.256 -7.104,12.799996 c -2.112,3.776 -1.536,8.128 1.216,9.408 2.752,1.28 6.464,-1.152 7.936,-5.184 l 5.184,-13.695996 0.512,0.256 c 1.536,0.704 3.584,-0.512 4.608,-2.688 1.088,-2.176 0.64,-4.48 -0.896,-5.248 z"
     fill="#ffffff"
     id="path440" />
  <path
     d="m 74.819918,86.173044 -8.256,-3.84 c -1.536,-0.704 -3.584,0.512 -4.608,2.688 -1.024,2.176 -0.576,4.544 0.896,5.248 l 0.512,0.256 -7.104,12.799996 c -2.112,3.776 -1.536,8.128 1.216,9.408 2.752,1.28 6.464,-1.152 7.936,-5.184 l 5.184,-13.695996 0.512,0.256 c 1.536,0.704 3.584,-0.512 4.608,-2.688 1.088,-2.176 0.64,-4.48 -0.896,-5.248 z"
     stroke="#4e5a7d"
     stroke-width="3"
     stroke-miterlimit="10"
     stroke-linecap="round"
     stroke-linejoin="round"
     id="path442" />
  <path
     d="m 124.29192,92.189044 -8.704,-2.688 c -1.6,-0.512 -3.456,0.96 -4.16,3.264 -0.704,2.304 0,4.607996 1.664,5.055996 l 0.512,0.192 -5.248,13.632 c -1.536,4.032 -0.384,8.256 2.496,9.152 2.88,0.896 6.208,-1.984 7.168,-6.208 l 3.264,-14.272 0.512,0.192 c 1.6,0.512 3.456,-0.96 4.16,-3.264 0.704,-2.303996 -0.064,-4.543996 -1.664,-5.055996 z"
     fill="#ffffff"
     id="path444" />
  <path
     d="m 124.29192,92.189044 -8.704,-2.688 c -1.6,-0.512 -3.456,0.96 -4.16,3.264 -0.704,2.304 0,4.607996 1.664,5.055996 l 0.512,0.192 -5.248,13.632 c -1.536,4.032 -0.384,8.256 2.496,9.152 2.88,0.896 6.208,-1.984 7.168,-6.208 l 3.264,-14.272 0.512,0.192 c 1.6,0.512 3.456,-0.96 4.16,-3.264 0.704,-2.303996 -0.064,-4.543996 -1.664,-5.055996 z"
     stroke="#4e5a7d"
     stroke-width="3"
     stroke-miterlimit="10"
     stroke-linecap="round"
     stroke-linejoin="round"
     id="path446" />
  <path
     d="m 273.15592,17.564744 h 4.672"
     stroke="#ffffff"
     stroke-width="2"
     stroke-miterlimit="10"
     stroke-linecap="round"
     stroke-linejoin="round"
     id="path448" />
  <path
     d="m 269.95592,12.764944 3.2,-4.352"
     stroke="#ffffff"
     stroke-width="2"
     stroke-miterlimit="10"
     stroke-linecap="round"
     stroke-linejoin="round"
     id="path450" />
  <path
     d="m 272.19592,14.749044 4.8,-3.008"
     stroke="#ffffff"
     stroke-width="2"
     stroke-miterlimit="10"
     stroke-linecap="round"
     stroke-linejoin="round"
     id="path452" />
  <path
     d="m 130.37192,96.02904 h 3.904"
     stroke="#ffffff"
     stroke-width="2"
     stroke-miterlimit="10"
     stroke-linecap="round"
     stroke-linejoin="round"
     id="path454" />
  <path
     d="m 127.74792,92.061044 2.624,-3.584"
     stroke="#ffffff"
     stroke-width="2"
     stroke-miterlimit="10"
     stroke-linecap="round"
     stroke-linejoin="round"
     id="path456" />
  <path
     d="m 129.60392,93.725044 3.968,-2.496"
     stroke="#ffffff"
     stroke-width="2"
     stroke-miterlimit="10"
     stroke-linecap="round"
     stroke-linejoin="round"
     id="path458" />
  <path
     d="m 88.195918,183.83704 4.352,-1.216"
     stroke="#ffffff"
     stroke-width="2"
     stroke-miterlimit="10"
     stroke-linecap="round"
     stroke-linejoin="round"
     id="path460" />
  <path
     d="m 83.971918,180.25304 1.856,-4.864"
     stroke="#ffffff"
     stroke-width="2"
     stroke-miterlimit="10"
     stroke-linecap="round"
     stroke-linejoin="round"
     id="path462" />
  <path
     d="m 86.531918,181.53304 3.712,-4.032"
     stroke="#ffffff"
     stroke-width="2"
     stroke-miterlimit="10"
     stroke-linecap="round"
     stroke-linejoin="round"
     id="path464" />
  <path
     d="m 4.8675184,228.50904 -1.088,4.352"
     stroke="#ffffff"
     stroke-width="2"
     stroke-miterlimit="10"
     stroke-linecap="round"
     stroke-linejoin="round"
     id="path466" />
  <path
     d="m 1.1557184,224.41304 -4.8,1.984"
     stroke="#ffffff"
     stroke-width="2"
     stroke-miterlimit="10"
     stroke-linecap="round"
     stroke-linejoin="round"
     id="path468" />
  <path
     d="m 2.4997184,226.90904 -3.904,3.84"
     stroke="#ffffff"
     stroke-width="2"
     stroke-miterlimit="10"
     stroke-linecap="round"
     stroke-linejoin="round"
     id="path470" />
  <path
     d="m 80.387918,88.477044 h 4.544"
     stroke="#ffffff"
     stroke-width="2"
     stroke-miterlimit="10"
     stroke-linecap="round"
     stroke-linejoin="round"
     id="path472" />
  <path
     d="m 77.315918,83.869044 3.072,-4.224"
     stroke="#ffffff"
     stroke-width="2"
     stroke-miterlimit="10"
     stroke-linecap="round"
     stroke-linejoin="round"
     id="path474" />
  <path
     d="m 79.427918,85.789044 4.672,-2.944"
     stroke="#ffffff"
     stroke-width="2"
     stroke-miterlimit="10"
     stroke-linecap="round"
     stroke-linejoin="round"
     id="path476" />
  <path
     d="m 388.35592,55.261044 2.176,-4.288"
     stroke="#ffffff"
     stroke-width="2"
     stroke-miterlimit="10"
     stroke-linecap="round"
     stroke-linejoin="round"
     id="path478" />
  <path
     d="m 383.49192,55.901044 -2.304,-4.928"
     stroke="#ffffff"
     stroke-width="2"
     stroke-miterlimit="10"
     stroke-linecap="round"
     stroke-linejoin="round"
     id="path480" />
  <path
     d="m 385.66792,55.261044 v -6.848"
     stroke="#ffffff"
     stroke-width="2"
     stroke-miterlimit="10"
     stroke-linecap="round"
     stroke-linejoin="round"
     id="path482" />
  <path
     d="m 454.33992,183.96504 -0.576,-4.736"
     stroke="#ffffff"
     stroke-width="2"
     stroke-miterlimit="10"
     stroke-linecap="round"
     stroke-linejoin="round"
     id="path484" />
  <path
     d="m 450.69192,187.22904 -4.608,-2.816"
     stroke="#ffffff"
     stroke-width="2"
     stroke-miterlimit="10"
     stroke-linecap="round"
     stroke-linejoin="round"
     id="path486" />
  <path
     d="m 452.09992,185.50104 -3.776,-5.696"
     stroke="#ffffff"
     stroke-width="2"
     stroke-miterlimit="10"
     stroke-linecap="round"
     stroke-linejoin="round"
     id="path488" />
  <path
     d="m 116.86792,48.541044 c 0,0 5.632,-2.752 10.816,2.496"
     stroke="#ffffff"
     stroke-width="2"
     stroke-miterlimit="10"
     stroke-linecap="round"
     stroke-linejoin="round"
     id="path490" />
  <path
     d="M 59.459918,476.82904 H 366.65992"
     stroke="#4e5a7d"
     stroke-width="6"
     stroke-miterlimit="10"
     stroke-linecap="round"
     stroke-linejoin="round"
     id="path492" />
  <path
     d="m 384.25992,476.82904 h 22.08"
     stroke="#4e5a7d"
     stroke-width="6"
     stroke-miterlimit="10"
     stroke-linecap="round"
     stroke-linejoin="round"
     id="path494" />
  <path
     d="m 424.25992,476.82904 h 11.776"
     stroke="#4e5a7d"
     stroke-width="6"
     stroke-miterlimit="10"
     stroke-linecap="round"
     stroke-linejoin="round"
     id="path496" />
</svg>
