<svg width="640" height="640" viewBox="0 0 640 640" fill="none" xmlns="http://www.w3.org/2000/svg">
  <path d="M441.152 243.456C430.272 250.176 455.744 323.328 467.52 321.664C474.88 320.64 483.136 289.472 468.928 265.536C461.504 252.928 446.528 240.128 441.152 243.456Z" fill="#880061" />
  <path d="M257.152 183.488C238.592 191.36 217.792 200.384 209.216 220.608C195.392 253.12 227.2 278.656 212.096 310.784C203.328 329.344 191.104 324.16 173.76 345.856C153.152 371.712 141.12 415.872 159.104 450.56C172.8 477.056 198.528 487.488 220.416 496.384C227.968 499.456 277.952 519.04 325.504 502.656C336.896 498.752 341.504 493.12 351.232 494.08C374.784 496.512 378.304 527.936 399.808 533.056C417.856 537.344 438.848 520.768 452.096 504.128C454.72 500.8 457.088 497.472 459.072 494.272C470.592 472.064 479.872 446.4 482.304 420.672C482.88 414.208 483.072 407.808 482.752 401.408C481.536 385.024 478.208 369.088 468.16 354.56C450.112 326.72 422.656 304.896 422.528 270.208C421.76 264.96 421.248 259.52 420.736 254.016C418.112 226.368 415.872 196.736 388.544 179.072C352.384 155.904 310.208 165.184 273.792 177.472C267.776 179.328 262.272 181.312 257.152 183.488Z" fill="#880061" />
  <path d="M110.656 292.992L107.648 293.376C104.896 293.76 102.4 291.84 102.016 289.088L97.9839 259.264C97.5999 256.512 99.5199 254.016 102.272 253.632L105.28 253.248C108.032 252.864 110.528 254.784 110.912 257.536L114.944 287.36C115.328 290.112 113.408 292.608 110.656 292.992Z" fill="white" />
  <path d="M96.896 288.448C94.144 288.832 91.648 286.912 91.264 284.16L88.96 266.88C88.576 264.128 90.496 261.632 93.248 261.248C96 260.864 98.496 262.784 98.88 265.536L101.184 282.752C101.568 285.504 99.648 288.064 96.896 288.448Z" fill="white" />
  <path d="M157.696 286.656L160.704 286.272C163.456 285.888 165.376 283.392 164.992 280.64L160.96 250.816C160.576 248.064 158.08 246.144 155.328 246.528L152.32 246.912C149.568 247.296 147.648 249.792 148.032 252.544L152.064 282.368C152.448 285.12 154.944 287.04 157.696 286.656Z" fill="white" />
  <path d="M169.792 278.592C172.544 278.208 174.464 275.712 174.08 272.96L171.776 255.744C171.392 252.992 168.896 251.072 166.144 251.456C163.392 251.84 161.472 254.336 161.856 257.088L164.16 274.304C164.48 277.056 167.04 278.976 169.792 278.592Z" fill="white" />
  <path d="M113.67 277.547L150.776 272.556L149.394 262.28L112.288 267.271L113.67 277.547Z" fill="white" />
  <path d="M110.656 292.992L107.648 293.376C104.896 293.76 102.4 291.84 102.016 289.088L97.9839 259.264C97.5999 256.512 99.5199 254.016 102.272 253.632L105.28 253.248C108.032 252.864 110.528 254.784 110.912 257.536L114.944 287.36C115.328 290.112 113.408 292.608 110.656 292.992Z" stroke="#4E5A7D" stroke-width="3" stroke-miterlimit="10" stroke-linecap="round" stroke-linejoin="round" />
  <path d="M96.896 288.448C94.144 288.832 91.648 286.912 91.264 284.16L88.96 266.88C88.576 264.128 90.496 261.632 93.248 261.248C96 260.864 98.496 262.784 98.88 265.536L101.184 282.752C101.568 285.504 99.648 288.064 96.896 288.448Z" stroke="#4E5A7D" stroke-width="3" stroke-miterlimit="10" stroke-linecap="round" stroke-linejoin="round" />
  <path d="M157.696 286.656L160.704 286.272C163.456 285.888 165.376 283.392 164.992 280.64L160.96 250.816C160.576 248.064 158.08 246.144 155.328 246.528L152.32 246.912C149.568 247.296 147.648 249.792 148.032 252.544L152.064 282.368C152.448 285.12 154.944 287.04 157.696 286.656Z" stroke="#4E5A7D" stroke-width="3" stroke-miterlimit="10" stroke-linecap="round" stroke-linejoin="round" />
  <path d="M169.792 278.592C172.544 278.208 174.464 275.712 174.08 272.96L171.776 255.744C171.392 252.992 168.896 251.072 166.144 251.456C163.392 251.84 161.472 254.336 161.856 257.088L164.16 274.304C164.48 277.056 167.04 278.976 169.792 278.592Z" stroke="#4E5A7D" stroke-width="3" stroke-miterlimit="10" stroke-linecap="round" stroke-linejoin="round" />
  <path d="M113.67 277.547L150.776 272.556L149.394 262.28L112.288 267.271L113.67 277.547Z" stroke="#4E5A7D" stroke-width="3" stroke-miterlimit="10" stroke-linecap="round" stroke-linejoin="round" />
  <path d="M399.552 475.648H260.928L266.112 453.44C268.8 441.92 283.008 433.536 299.648 433.536H360.832C377.472 433.536 391.68 441.984 394.368 453.44L399.552 475.648Z" fill="#E08484" />
  <path d="M399.552 475.648H260.928L266.112 453.44C268.8 441.92 283.008 433.536 299.648 433.536H360.832C377.472 433.536 391.68 441.984 394.368 453.44L399.552 475.648Z" stroke="#4E5A7D" stroke-width="6" stroke-miterlimit="10" stroke-linecap="round" stroke-linejoin="round" />
  <path d="M380.16 458.752H362.752C356.096 458.752 350.72 453.376 350.72 446.72V419.136H309.76V446.72C309.76 453.376 304.384 458.752 297.728 458.752H280.32C254.848 458.752 234.24 479.36 234.24 504.832V542.4H426.24V504.832C426.24 479.36 405.568 458.752 380.16 458.752Z" fill="#FBE3D5" />
  <path d="M329.472 431.808C341.207 431.808 350.72 426.221 350.72 419.328C350.72 412.436 341.207 406.848 329.472 406.848C317.737 406.848 308.224 412.436 308.224 419.328C308.224 426.221 317.737 431.808 329.472 431.808Z" fill="#D5B6A5" />
  <path d="M426.24 504.832V542.4H234.24V504.832C234.24 479.36 254.848 458.752 280.32 458.752H297.728C298.176 458.752 298.624 458.752 299.072 458.688C303.808 471.552 316.224 480.768 330.752 480.768C345.28 480.768 357.632 471.616 362.368 458.752C362.496 458.752 362.624 458.752 362.816 458.752H380.16C405.568 458.752 426.24 479.36 426.24 504.832Z" fill="#E08484" />
  <path d="M312.32 507.136C294.336 507.136 279.68 492.48 279.68 474.496V458.624H382.016V474.496C382.016 492.48 367.36 507.136 349.376 507.136H312.32Z" fill="#D87171" />
  <path d="M380.16 458.752H362.752C356.096 458.752 350.72 453.376 350.72 446.72V419.136H309.76V446.72C309.76 453.376 304.384 458.752 297.728 458.752H280.32C254.848 458.752 234.24 479.36 234.24 504.832V542.4H426.24V504.832C426.24 479.36 405.568 458.752 380.16 458.752Z" stroke="#4E5A7D" stroke-width="6" stroke-miterlimit="10" stroke-linecap="round" stroke-linejoin="round" />
  <path d="M374.72 265.089C374.016 255.361 376.576 248.001 381.12 246.401C385.6 244.801 390.848 249.217 392.64 250.753C409.6 264.961 399.168 312.513 396.288 324.737L374.72 265.089Z" fill="#BCAFAA" />
  <path d="M373.44 265.088C372.736 255.36 375.296 248 379.84 246.4C380.736 246.08 381.632 246.016 382.528 246.08" stroke="#4E5A7D" stroke-width="6" stroke-miterlimit="10" stroke-linecap="round" stroke-linejoin="round" />
  <path d="M383.808 246.08C387.52 246.4 391.168 249.472 392.64 250.752C409.6 264.96 399.168 312.512 396.288 324.736L374.72 265.152" stroke="#4E5A7D" stroke-width="6" stroke-miterlimit="10" stroke-linecap="round" stroke-linejoin="round" />
  <path d="M263.36 329.088V307.52C263.36 283.008 285.056 289.344 309.504 289.344L354.752 291.072C368.96 291.072 377.536 269.888 385.6 280.256C385.344 272.704 383.936 263.104 379.52 253.056C377.088 247.424 366.912 226.112 343.488 216.32C335.552 212.992 328.96 212.224 324.928 211.776C309.504 210.048 303.168 207.296 276.672 214.656C259.904 219.264 247.872 227.648 247.68 231.296C247.488 234.624 255.616 233.792 262.272 238.784C273.088 246.848 257.984 265.024 255.872 288.064C254.976 297.92 255.808 311.744 263.36 329.088Z" fill="#BCAFAA" />
  <path d="M382.528 261.248C381.696 257.92 380.032 254.272 379.52 253.056C377.088 247.424 366.912 226.112 343.488 216.32C335.552 212.992 328.96 212.224 324.928 211.776C309.504 210.048 299.072 208.384 272.576 215.744C255.808 220.352 246.336 224.256 247.68 231.296C248.512 235.712 258.432 234.496 264.192 242.816C271.872 253.952 257.984 265.024 255.872 288.128C254.976 297.984 255.808 311.808 263.36 329.152V307.584C263.36 283.072 285.056 289.408 309.504 289.408L354.752 291.136C368.96 291.136 377.536 269.952 385.6 280.32" stroke="#4E5A7D" stroke-width="6" stroke-miterlimit="10" stroke-linecap="round" stroke-linejoin="round" />
  <path d="M383.36 277.504C380.16 274.048 375.36 272.576 370.752 273.536C359.296 275.968 345.344 277.376 330.24 277.376C314.496 277.376 299.968 275.84 288.192 273.216C283.584 272.192 278.72 273.6 275.52 277.056C268.032 284.992 263.424 295.68 263.424 307.456V362.112C263.424 397.184 291.904 425.664 326.976 425.664H331.584C366.656 425.664 395.136 397.184 395.136 362.112V307.456C395.072 295.936 390.592 285.44 383.36 277.504Z" fill="#FBE3D5" />
  <path d="M331.52 417.856H326.912C291.84 417.856 263.36 389.376 263.36 354.304V360.896C263.36 395.968 291.84 424.448 326.912 424.448H331.52C366.592 424.448 395.072 395.968 395.072 360.896V354.304C395.072 389.376 366.592 417.856 331.52 417.856Z" fill="#D5B6A5" />
  <path d="M333.696 365.44C333.696 365.44 340.16 363.456 343.168 364.416C345.344 355.008 338.688 346.432 338.688 346.432" stroke="#4E5A7D" stroke-width="6" stroke-miterlimit="10" stroke-linecap="round" stroke-linejoin="round" />
  <path d="M346.624 392.576C342.912 395.008 338.176 396.48 332.928 396.48C321.28 396.48 311.808 389.184 311.808 380.224" stroke="#4E5A7D" stroke-width="6" stroke-miterlimit="10" stroke-linecap="round" stroke-linejoin="round" />
  <path d="M309.504 332.992C313.109 332.992 316.032 329.325 316.032 324.8C316.032 320.276 313.109 316.608 309.504 316.608C305.899 316.608 302.976 320.276 302.976 324.8C302.976 329.325 305.899 332.992 309.504 332.992Z" fill="#4E5A7D" />
  <path d="M357.888 332.672C361.493 332.672 364.416 329.004 364.416 324.48C364.416 319.956 361.493 316.288 357.888 316.288C354.283 316.288 351.36 319.956 351.36 324.48C351.36 329.004 354.283 332.672 357.888 332.672Z" fill="#4E5A7D" />
  <path d="M370.752 273.6C359.296 276.032 345.344 277.44 330.24 277.44C314.496 277.44 299.968 275.904 288.192 273.28C283.584 272.256 278.72 273.664 275.52 277.12C268.032 285.056 263.424 295.744 263.424 307.52V311.104C284.992 312.64 306.88 313.472 328.512 313.472C350.656 313.472 372.992 312.64 395.136 310.976V307.52C395.136 295.936 390.72 285.44 383.424 277.504C380.16 274.048 375.36 272.576 370.752 273.6Z" fill="#D5B6A5" />
  <path d="M383.36 277.504C380.16 274.048 375.36 272.576 370.752 273.536C359.296 275.968 345.344 277.376 330.24 277.376C314.496 277.376 299.968 275.84 288.192 273.216C283.584 272.192 278.72 273.6 275.52 277.056C268.032 284.992 263.424 295.68 263.424 307.456V362.112C263.424 397.184 291.904 425.664 326.976 425.664H331.584C366.656 425.664 395.136 397.184 395.136 362.112V307.456C395.072 295.936 390.592 285.44 383.36 277.504Z" stroke="#4E5A7D" stroke-width="6" stroke-miterlimit="10" stroke-linecap="round" stroke-linejoin="round" />
  <path d="M397.248 306.304C351.424 308.992 305.408 308.992 259.584 306.304C256.384 306.112 253.888 303.68 253.888 300.672V286.08C253.888 282.816 256.896 280.256 260.416 280.448C305.728 283.136 351.168 283.136 396.48 280.448C400 280.256 403.008 282.816 403.008 286.08V300.672C403.008 303.68 400.512 306.112 397.248 306.304Z" fill="#84BDE1" />
  <path opacity="0.3" d="M396.48 280.512C351.168 283.2 305.728 283.2 260.416 280.512C256.896 280.32 253.888 282.88 253.888 286.144V291.008C253.888 287.744 256.896 285.184 260.416 285.376C305.728 288.064 351.168 288.064 396.48 285.376C400 285.184 403.008 287.744 403.008 291.008V286.08C403.008 282.88 400 280.32 396.48 280.512Z" fill="#84BDE1" />
  <path d="M397.248 306.304C351.424 308.992 305.408 308.992 259.584 306.304C256.384 306.112 253.888 303.68 253.888 300.672V286.08C253.888 282.816 256.896 280.256 260.416 280.448C305.728 283.136 351.168 283.136 396.48 280.448C400 280.256 403.008 282.816 403.008 286.08V300.672C403.008 303.68 400.512 306.112 397.248 306.304Z" stroke="#4E5A7D" stroke-width="6" stroke-miterlimit="10" stroke-linecap="round" stroke-linejoin="round" />
  <path d="M379.52 251.968C379.52 251.968 392.704 251.968 395.008 276.992" stroke="#4E5A7D" stroke-width="4" stroke-miterlimit="10" stroke-linecap="round" stroke-linejoin="round" />
  <path d="M305.728 220.992C332.928 222.4 358.336 235.968 361.408 259.584" stroke="#4E5A7D" stroke-width="4" stroke-miterlimit="10" stroke-linecap="round" stroke-linejoin="round" />
  <path d="M287.168 223.04C290.688 221.952 295.168 220.928 299.776 220.992" stroke="#4E5A7D" stroke-width="4" stroke-miterlimit="10" stroke-linecap="round" stroke-linejoin="round" />
  <path d="M307.968 235.584C322.688 237.952 341.76 240.256 348.864 264.512" stroke="#4E5A7D" stroke-width="4" stroke-miterlimit="10" stroke-linecap="round" stroke-linejoin="round" />
  <path d="M328.448 404.032C328.448 404.032 332.096 406.208 338.688 404.032" stroke="#4E5A7D" stroke-width="6" stroke-miterlimit="10" stroke-linecap="round" stroke-linejoin="round" />
  <path d="M298.944 370.432C305.589 370.432 310.976 365.045 310.976 358.4C310.976 351.755 305.589 346.368 298.944 346.368C292.299 346.368 286.912 351.755 286.912 358.4C286.912 365.045 292.299 370.432 298.944 370.432Z" fill="#F5CFC4" />
  <path d="M362.432 370.432C369.077 370.432 374.464 365.045 374.464 358.4C374.464 351.755 369.077 346.368 362.432 346.368C355.787 346.368 350.4 351.755 350.4 358.4C350.4 365.045 355.787 370.432 362.432 370.432Z" fill="#F5CFC4" />
  <path d="M261.568 345.152H262.848V311.488H261.568C257.344 311.488 253.888 314.944 253.888 319.168V337.472C253.888 341.696 257.344 345.152 261.568 345.152Z" fill="#FEF0E3" />
  <path d="M261.568 345.152H262.848V311.488H261.568C257.344 311.488 253.888 314.944 253.888 319.168V337.472C253.888 341.696 257.344 345.152 261.568 345.152Z" stroke="#4E5A7D" stroke-width="6" stroke-miterlimit="10" stroke-linecap="round" stroke-linejoin="round" />
  <path d="M396.352 345.152H395.072V311.488H396.352C400.576 311.488 404.032 314.944 404.032 319.168V337.472C404.032 341.696 400.576 345.152 396.352 345.152Z" fill="#FEF0E3" />
  <path d="M396.352 345.152H395.072V311.488H396.352C400.576 311.488 404.032 314.944 404.032 319.168V337.472C404.032 341.696 400.576 345.152 396.352 345.152Z" stroke="#4E5A7D" stroke-width="6" stroke-miterlimit="10" stroke-linecap="round" stroke-linejoin="round" />
  <path d="M349.376 502.016H312.32C297.152 502.016 284.8 489.664 284.8 474.496V448.896H376.896V474.496C376.896 489.728 364.608 502.016 349.376 502.016Z" fill="#E08484" />
  <path d="M376.896 448.896V474.496C376.896 489.664 364.544 502.016 349.376 502.016H312.32C297.152 502.016 284.8 489.664 284.8 474.496V448.896" stroke="#4E5A7D" stroke-width="6" stroke-miterlimit="10" stroke-linecap="round" stroke-linejoin="round" />
  <path d="M362.304 458.752C357.568 471.616 345.152 480.768 330.688 480.768C316.16 480.768 303.744 471.552 299.008 458.688C305.024 458.048 309.76 452.928 309.76 446.72V444.48H350.72V446.72C350.72 453.184 355.84 458.496 362.304 458.752Z" fill="#FBE3D5" />
  <path d="M357.952 457.728C353.664 468.864 342.976 476.288 330.688 476.288C318.272 476.288 307.52 468.672 303.296 457.344C302.016 458.048 300.544 458.496 299.008 458.688C303.744 471.552 316.16 480.768 330.688 480.768C345.216 480.768 357.568 471.616 362.304 458.752C360.768 458.688 359.296 458.304 357.952 457.728Z" fill="#EDD4C6" />
  <path d="M350.72 444.416V446.656C350.72 452.224 354.496 456.96 359.68 458.304C361.024 458.688 361.792 460.16 361.216 461.44C355.776 472.832 344.192 480.704 330.752 480.704C317.184 480.704 305.536 472.704 300.16 461.184C299.584 459.968 300.224 458.496 301.568 458.112C306.368 456.512 309.824 452.032 309.824 446.656V444.416" stroke="#4E5A7D" stroke-width="6" stroke-miterlimit="10" stroke-linecap="round" stroke-linejoin="round" />
  <path d="M297.792 454.592C301.248 469.568 314.624 480.768 330.688 480.768C346.752 480.768 360.128 469.568 363.584 454.592" stroke="#4E5A7D" stroke-width="6" stroke-miterlimit="10" stroke-linecap="round" stroke-linejoin="round" />
  <path d="M307.008 490.816C309.835 490.816 312.128 489.498 312.128 487.872C312.128 486.246 309.835 484.928 307.008 484.928C304.18 484.928 301.888 486.246 301.888 487.872C301.888 489.498 304.18 490.816 307.008 490.816Z" fill="#4E5A7D" />
  <path d="M307.008 487.872V521.216" stroke="#4E5A7D" stroke-width="8" stroke-miterlimit="10" stroke-linecap="round" stroke-linejoin="round" />
  <path d="M353.408 490.816C356.236 490.816 358.528 489.498 358.528 487.872C358.528 486.246 356.236 484.928 353.408 484.928C350.58 484.928 348.288 486.246 348.288 487.872C348.288 489.498 350.58 490.816 353.408 490.816Z" fill="#4E5A7D" />
  <path d="M353.408 487.872V512.256" stroke="#4E5A7D" stroke-width="8" stroke-miterlimit="10" stroke-linecap="round" stroke-linejoin="round" />
  <path d="M308.864 530.048H305.024C302.592 530.048 300.8 527.808 301.376 525.44L303.04 518.016H310.848L312.512 525.44C313.088 527.808 311.296 530.048 308.864 530.048Z" fill="#FEF0E3" />
  <path d="M308.864 530.048H305.024C302.592 530.048 300.8 527.808 301.376 525.44L303.04 518.016H310.848L312.512 525.44C313.088 527.808 311.296 530.048 308.864 530.048Z" stroke="#4E5A7D" stroke-width="6" stroke-miterlimit="10" stroke-linecap="round" stroke-linejoin="round" />
  <path d="M355.328 524.032H351.488C349.056 524.032 347.264 521.792 347.84 519.424L349.504 512H357.312L358.976 519.424C359.552 521.792 357.76 524.032 355.328 524.032Z" fill="#FEF0E3" />
  <path d="M355.328 524.032H351.488C349.056 524.032 347.264 521.792 347.84 519.424L349.504 512H357.312L358.976 519.424C359.552 521.792 357.76 524.032 355.328 524.032Z" stroke="#4E5A7D" stroke-width="6" stroke-miterlimit="10" stroke-linecap="round" stroke-linejoin="round" />
  <path opacity="0.58" d="M325.12 456.128C325.12 456.128 327.168 456.32 329.472 458.688C329.472 458.688 332.16 456.128 334.464 456.128" stroke="#D5B6A5" stroke-width="6" stroke-miterlimit="10" stroke-linecap="round" stroke-linejoin="round" />
  <path d="M332.928 261.824C332.928 261.824 331.52 253.76 317.312 249.344" stroke="#4E5A7D" stroke-width="4" stroke-miterlimit="10" stroke-linecap="round" stroke-linejoin="round" />
  <path d="M273.344 518.016V542.4" stroke="#4E5A7D" stroke-width="6" stroke-miterlimit="10" stroke-linecap="round" stroke-linejoin="round" />
  <path d="M385.664 518.016V542.4" stroke="#4E5A7D" stroke-width="6" stroke-miterlimit="10" stroke-linecap="round" stroke-linejoin="round" />
  <path d="M349.696 137.152H316.16C312.64 137.152 309.76 134.272 309.76 130.752V88.9596C309.76 85.4396 312.64 82.5596 316.16 82.5596H349.696C353.216 82.5596 356.096 85.4396 356.096 88.9596V130.752C356.096 134.272 353.216 137.152 349.696 137.152Z" fill="white" />
  <path d="M349.696 137.152H316.16C312.64 137.152 309.76 134.272 309.76 130.752V88.9596C309.76 85.4396 312.64 82.5596 316.16 82.5596H349.696C353.216 82.5596 356.096 85.4396 356.096 88.9596V130.752C356.096 134.272 353.216 137.152 349.696 137.152Z" stroke="#4E5A7D" stroke-width="3" stroke-miterlimit="10" stroke-linecap="round" stroke-linejoin="round" />
  <path d="M352.96 148.736C360.064 148.736 365.824 142.976 365.824 135.872C365.824 128.767 360.064 123.008 352.96 123.008C345.855 123.008 340.096 128.767 340.096 135.872C340.096 142.976 345.855 148.736 352.96 148.736Z" fill="white" />
  <path d="M352.96 148.736C360.064 148.736 365.824 142.976 365.824 135.872C365.824 128.767 360.064 123.008 352.96 123.008C345.855 123.008 340.096 128.767 340.096 135.872C340.096 142.976 345.855 148.736 352.96 148.736Z" stroke="#4E5A7D" stroke-width="3" stroke-miterlimit="10" stroke-linecap="round" stroke-linejoin="round" />
  <path d="M347.072 135.744L351.104 139.776L358.848 131.968" stroke="#4E5A7D" stroke-width="4" stroke-miterlimit="10" stroke-linecap="round" stroke-linejoin="round" />
  <path d="M337.024 79.1678V73.8558C337.024 71.5518 335.168 69.6958 332.864 69.6958C330.56 69.6958 328.704 71.5518 328.704 73.8558V79.1678H324.16V80.8318V86.3998H341.568V80.8318V79.1678H337.024Z" fill="white" />
  <path d="M337.024 79.6796V74.7516C337.024 72.6396 335.168 70.9116 332.864 70.9116C330.56 70.9116 328.704 72.6396 328.704 74.7516V79.6796H324.16V81.2156V86.3996H341.568V81.2156V79.6796H337.024Z" stroke="#4E5A7D" stroke-width="3" stroke-miterlimit="10" stroke-linecap="round" stroke-linejoin="round" />
  <path d="M322.112 101.888H345.92" stroke="#4E5A7D" stroke-width="3" stroke-miterlimit="10" stroke-linecap="round" stroke-linejoin="round" />
  <path d="M322.112 109.824H345.92" stroke="#4E5A7D" stroke-width="3" stroke-miterlimit="10" stroke-linecap="round" stroke-linejoin="round" />
  <path d="M326.464 117.504H341.568" stroke="#4E5A7D" stroke-width="3" stroke-miterlimit="10" stroke-linecap="round" stroke-linejoin="round" />
  <path d="M471.872 131.2L465.6 124.672C459.52 118.336 449.408 118.208 443.456 124.672C437.696 130.944 435.84 142.4 443.648 155.136C451.52 167.872 471.808 176.512 471.808 176.512C471.808 176.512 492.16 167.872 499.968 155.136C507.84 142.4 505.984 130.944 500.16 124.672C494.208 118.208 484.096 118.336 478.016 124.672L471.872 131.2Z" fill="white" />
  <path d="M471.872 131.2L465.6 124.672C459.52 118.336 449.408 118.208 443.456 124.672C437.696 130.944 435.84 142.4 443.648 155.136C451.52 167.872 471.808 176.512 471.808 176.512C471.808 176.512 492.16 167.872 499.968 155.136C507.84 142.4 505.984 130.944 500.16 124.672C494.208 118.208 484.096 118.336 478.016 124.672L471.872 131.2Z" stroke="#4E5A7D" stroke-width="3" stroke-miterlimit="10" stroke-linecap="round" stroke-linejoin="round" />
  <path d="M450.176 151.872H460.288L465.216 138.944L471.872 161.664L476.608 151.296L480.256 156.992L485.12 138.944L489.6 150.336H495.168" stroke="#4E5A7D" stroke-width="3" stroke-miterlimit="10" stroke-linecap="round" stroke-linejoin="round" />
  <path d="M511.552 223.616C511.552 223.616 497.088 257.856 497.088 271.296C497.088 284.736 498.24 288.384 498.24 288.384C498.24 288.384 529.664 292.992 547.072 284.8C564.544 276.608 569.536 265.216 569.536 265.216C569.536 265.216 569.344 245.44 557.952 244.16C553.28 243.648 546.688 244.48 544.32 250.624C541.056 259.072 543.36 262.208 543.36 262.208C540.672 259.52 536.32 255.744 527.616 255.744C518.912 255.744 514.304 265.216 514.304 265.216L514.944 237.696L530.432 236.352L533.312 223.616L524.096 212.864L511.552 223.616Z" fill="white" />
  <path d="M511.552 223.616C511.552 223.616 497.088 257.856 497.088 271.296C497.088 284.736 498.24 288.384 498.24 288.384C498.24 288.384 529.664 292.992 547.072 284.8C564.544 276.608 569.536 265.216 569.536 265.216C569.536 265.216 569.344 245.44 557.952 244.16C553.28 243.648 546.688 244.48 544.32 250.624C541.056 259.072 543.36 262.208 543.36 262.208C540.672 259.52 536.32 255.744 527.616 255.744C518.912 255.744 514.304 265.216 514.304 265.216L514.944 237.696L530.432 236.352L533.312 223.616L524.096 212.864L511.552 223.616Z" stroke="#4E5A7D" stroke-width="3" stroke-miterlimit="10" stroke-linecap="round" stroke-linejoin="round" />
  <path d="M524.224 273.472C524.224 273.472 532.352 276.608 539.968 273.472" stroke="#4E5A7D" stroke-width="3" stroke-miterlimit="10" stroke-linecap="round" stroke-linejoin="round" />
  <path d="M505.472 274.815V282.303H511.552" stroke="#4E5A7D" stroke-width="3" stroke-miterlimit="10" stroke-linecap="round" stroke-linejoin="round" />
  <path d="M156.992 150.272C156.992 150.272 173.952 117.184 198.272 110.656C202.24 109.568 210.56 108.352 216.96 113.216C223.872 118.528 226.432 129.664 222.08 137.728C215.68 149.504 196.8 149.952 191.36 143.808C189.376 141.568 189.44 138.752 189.504 138.048C189.632 131.52 197.248 125.12 203.904 126.08C207.744 126.656 210.176 129.536 210.432 129.792C215.296 135.744 213.312 147.328 205.76 158.912" stroke="#4E5A7D" stroke-width="3" stroke-miterlimit="10" stroke-linecap="round" stroke-linejoin="round" />
  <path d="M161.024 151.744L152.768 147.904C151.232 147.2 149.184 148.416 148.16 150.592C147.136 152.768 147.584 155.136 149.056 155.84L149.568 156.096L142.464 168.896C140.352 172.672 140.928 177.024 143.68 178.304C146.432 179.584 150.144 177.152 151.616 173.12L156.8 159.424L157.312 159.68C158.848 160.384 160.896 159.168 161.92 156.992C163.008 154.816 162.56 152.512 161.024 151.744Z" fill="white" />
  <path d="M161.024 151.744L152.768 147.904C151.232 147.2 149.184 148.416 148.16 150.592C147.136 152.768 147.584 155.136 149.056 155.84L149.568 156.096L142.464 168.896C140.352 172.672 140.928 177.024 143.68 178.304C146.432 179.584 150.144 177.152 151.616 173.12L156.8 159.424L157.312 159.68C158.848 160.384 160.896 159.168 161.92 156.992C163.008 154.816 162.56 152.512 161.024 151.744Z" stroke="#4E5A7D" stroke-width="3" stroke-miterlimit="10" stroke-linecap="round" stroke-linejoin="round" />
  <path d="M210.496 157.76L201.792 155.072C200.192 154.56 198.336 156.032 197.632 158.336C196.928 160.64 197.632 162.944 199.296 163.392L199.808 163.584L194.56 177.216C193.024 181.248 194.176 185.472 197.056 186.368C199.936 187.264 203.264 184.384 204.224 180.16L207.488 165.888L208 166.08C209.6 166.592 211.456 165.12 212.16 162.816C212.864 160.512 212.096 158.272 210.496 157.76Z" fill="white" />
  <path d="M210.496 157.76L201.792 155.072C200.192 154.56 198.336 156.032 197.632 158.336C196.928 160.64 197.632 162.944 199.296 163.392L199.808 163.584L194.56 177.216C193.024 181.248 194.176 185.472 197.056 186.368C199.936 187.264 203.264 184.384 204.224 180.16L207.488 165.888L208 166.08C209.6 166.592 211.456 165.12 212.16 162.816C212.864 160.512 212.096 158.272 210.496 157.76Z" stroke="#4E5A7D" stroke-width="3" stroke-miterlimit="10" stroke-linecap="round" stroke-linejoin="round" />
  <path d="M359.36 83.1357H364.032" stroke="white" stroke-width="2" stroke-miterlimit="10" stroke-linecap="round" stroke-linejoin="round" />
  <path d="M356.16 78.3359L359.36 73.9839" stroke="white" stroke-width="2" stroke-miterlimit="10" stroke-linecap="round" stroke-linejoin="round" />
  <path d="M358.4 80.32L363.2 77.312" stroke="white" stroke-width="2" stroke-miterlimit="10" stroke-linecap="round" stroke-linejoin="round" />
  <path d="M216.576 161.6H220.48" stroke="white" stroke-width="2" stroke-miterlimit="10" stroke-linecap="round" stroke-linejoin="round" />
  <path d="M213.952 157.632L216.576 154.048" stroke="white" stroke-width="2" stroke-miterlimit="10" stroke-linecap="round" stroke-linejoin="round" />
  <path d="M215.808 159.296L219.776 156.8" stroke="white" stroke-width="2" stroke-miterlimit="10" stroke-linecap="round" stroke-linejoin="round" />
  <path d="M174.4 249.408L178.752 248.192" stroke="white" stroke-width="2" stroke-miterlimit="10" stroke-linecap="round" stroke-linejoin="round" />
  <path d="M170.176 245.824L172.032 240.96" stroke="white" stroke-width="2" stroke-miterlimit="10" stroke-linecap="round" stroke-linejoin="round" />
  <path d="M172.736 247.104L176.448 243.072" stroke="white" stroke-width="2" stroke-miterlimit="10" stroke-linecap="round" stroke-linejoin="round" />
  <path d="M91.0716 294.08L89.9836 298.432" stroke="white" stroke-width="2" stroke-miterlimit="10" stroke-linecap="round" stroke-linejoin="round" />
  <path d="M87.3598 289.984L82.5598 291.968" stroke="white" stroke-width="2" stroke-miterlimit="10" stroke-linecap="round" stroke-linejoin="round" />
  <path d="M88.7038 292.48L84.7998 296.32" stroke="white" stroke-width="2" stroke-miterlimit="10" stroke-linecap="round" stroke-linejoin="round" />
  <path d="M166.592 154.048H171.136" stroke="white" stroke-width="2" stroke-miterlimit="10" stroke-linecap="round" stroke-linejoin="round" />
  <path d="M163.52 149.44L166.592 145.216" stroke="white" stroke-width="2" stroke-miterlimit="10" stroke-linecap="round" stroke-linejoin="round" />
  <path d="M165.632 151.36L170.304 148.416" stroke="white" stroke-width="2" stroke-miterlimit="10" stroke-linecap="round" stroke-linejoin="round" />
  <path d="M474.56 120.832L476.736 116.544" stroke="white" stroke-width="2" stroke-miterlimit="10" stroke-linecap="round" stroke-linejoin="round" />
  <path d="M469.696 121.472L467.392 116.544" stroke="white" stroke-width="2" stroke-miterlimit="10" stroke-linecap="round" stroke-linejoin="round" />
  <path d="M471.872 120.832V113.984" stroke="white" stroke-width="2" stroke-miterlimit="10" stroke-linecap="round" stroke-linejoin="round" />
  <path d="M540.544 249.536L539.968 244.8" stroke="white" stroke-width="2" stroke-miterlimit="10" stroke-linecap="round" stroke-linejoin="round" />
  <path d="M536.896 252.8L532.288 249.984" stroke="white" stroke-width="2" stroke-miterlimit="10" stroke-linecap="round" stroke-linejoin="round" />
  <path d="M538.304 251.072L534.528 245.376" stroke="white" stroke-width="2" stroke-miterlimit="10" stroke-linecap="round" stroke-linejoin="round" />
  <path d="M203.072 114.112C203.072 114.112 208.704 111.36 213.888 116.608" stroke="white" stroke-width="2" stroke-miterlimit="10" stroke-linecap="round" stroke-linejoin="round" />
  <path d="M145.664 542.4H452.864" stroke="#4E5A7D" stroke-width="6" stroke-miterlimit="10" stroke-linecap="round" stroke-linejoin="round" />
  <path d="M470.464 542.4H492.544" stroke="#4E5A7D" stroke-width="6" stroke-miterlimit="10" stroke-linecap="round" stroke-linejoin="round" />
  <path d="M510.464 542.4H522.24" stroke="#4E5A7D" stroke-width="6" stroke-miterlimit="10" stroke-linecap="round" stroke-linejoin="round" />
</svg>
