<svg width="279" height="193" viewBox="0 0 279 193" fill="none" xmlns="http://www.w3.org/2000/svg">
  <path d="M215.705 89.1621C212.226 73.7382 202.082 60.1999 190.472 48.1761C180.218 37.5741 168.059 28.0849 153.374 22.0576C146.269 19.1212 138.248 16.4321 130.301 16.0611C122.391 15.6902 114.407 17.0193 107.156 19.7085C99.7947 22.3976 93.0927 26.6013 88.0754 31.8559C82.3623 37.7905 79.1762 44.9306 75.8435 51.978C68.2993 67.9891 56.7265 82.3311 49.0358 98.3422C42.224 112.499 38.8913 128.633 45.8496 143.285C52.5149 157.256 68.0429 165.292 85.109 168.012C104.629 171.072 124.808 167.734 142.973 161.398C152.092 158.245 160.808 154.319 169.304 150.085C177.691 145.881 186.114 141.585 193.951 136.701C201.056 132.281 207.282 127.057 211.201 120.319C214.936 113.921 216.731 106.75 216.804 99.6095C216.84 96.0549 216.401 92.5621 215.705 89.1621Z" fill="#880061" fill-opacity="0.5" />
  <path d="M124.906 137.601C124.906 135.517 124.812 134.09 124.625 133.32C124.438 132.528 124.094 132.132 123.594 132.132C123.281 132.132 123 132.236 122.75 132.445C122.792 132.82 122.854 133.32 122.938 133.945C123.021 134.57 123.062 135.903 123.062 137.945V139.976C123.062 141.392 123.031 142.424 122.969 143.07C122.906 143.715 122.854 144.267 122.812 144.726C122.792 144.976 122.771 145.226 122.75 145.476C123 145.684 123.281 145.788 123.594 145.788C124.094 145.788 124.438 145.403 124.625 144.632C124.812 143.84 124.906 142.403 124.906 140.32V137.601ZM113.25 159.195C110.938 159.195 109.146 158.58 107.875 157.351C106.625 156.122 106 154.267 106 151.788V123.663C106 122.08 107.583 120.747 110.75 119.663C113.938 118.559 117.49 118.007 121.406 118.007C128.302 118.007 133.688 119.674 137.562 123.007C141.729 126.59 143.812 131.934 143.812 139.038C143.812 145.434 141.792 150.392 137.75 153.913C133.729 157.434 128.198 159.195 121.156 159.195H113.25ZM162.969 136.945C163.052 137.007 163.292 137.038 163.688 137.038C164.083 137.038 164.385 136.882 164.594 136.57C164.802 136.257 164.906 135.747 164.906 135.038V133.913C164.906 133.163 164.812 132.632 164.625 132.32C164.458 131.986 164.167 131.82 163.75 131.82C163.354 131.82 163.083 131.861 162.938 131.945C162.958 132.049 162.969 132.226 162.969 132.476V136.945ZM179.094 144.07L184.5 149.601C184.125 152.851 183.094 155.351 181.406 157.101C179.74 158.851 177.427 159.726 174.469 159.726C172.24 159.726 170.302 159.195 168.656 158.132C166.552 156.799 164.979 154.674 163.938 151.757L162.812 148.695C161.938 148.674 160.833 148.559 159.5 148.351C159.333 148.517 159.25 148.747 159.25 149.038C159.25 149.601 160.094 149.934 161.781 150.038L163.562 154.538V157.195C161.167 158.882 158.094 159.726 154.344 159.726C151.656 159.726 149.51 159.174 147.906 158.07C146.302 156.965 145.5 155.361 145.5 153.257V123.57C145.5 122.653 146.344 121.767 148.031 120.913C149.719 120.038 151.927 119.34 154.656 118.82C157.385 118.278 160.115 118.007 162.844 118.007C169.094 118.007 173.979 119.288 177.5 121.851C181.208 124.538 183.062 128.32 183.062 133.195C183.062 135.986 182.271 138.382 180.688 140.382C179.125 142.361 177.146 143.736 174.75 144.507C174.75 145.174 175.146 145.507 175.938 145.507C176.75 145.507 177.802 145.028 179.094 144.07ZM205.406 138.632C205.573 138.799 205.833 138.882 206.188 138.882C206.542 138.882 206.844 138.809 207.094 138.663C206.552 135.497 206.188 133.622 206 133.038C205.771 132.434 205.427 132.132 204.969 132.132C204.76 132.132 204.51 132.195 204.219 132.32L205.406 138.632ZM199.219 148.007C199.01 148.299 198.906 148.57 198.906 148.82C198.906 149.424 199.469 149.934 200.594 150.351C201.74 150.747 203.125 150.997 204.75 151.101C205.021 154.101 205.312 155.809 205.625 156.226C205.229 156.997 204.135 157.778 202.344 158.57C200.552 159.34 198.531 159.726 196.281 159.726C193.302 159.726 190.75 159.09 188.625 157.82C186.5 156.528 185.438 154.872 185.438 152.851C185.438 152.309 185.49 151.83 185.594 151.413L192.25 121.663C193.917 120.601 195.906 119.767 198.219 119.163C200.531 118.559 202.938 118.257 205.438 118.257C209.021 118.257 212.083 118.861 214.625 120.07C217.521 121.445 219.281 123.434 219.906 126.038L227.031 155.507C224.865 158.32 221.333 159.726 216.438 159.726C214.062 159.726 212.052 159.299 210.406 158.445C208.76 157.59 207.802 156.372 207.531 154.788L206.844 150.976C208.094 150.955 209.302 150.715 210.469 150.257C211.635 149.799 212.219 149.32 212.219 148.82C212.219 148.486 212.083 148.215 211.812 148.007C211.021 148.57 210.052 148.997 208.906 149.288C207.76 149.58 206.698 149.726 205.719 149.726C202.906 149.726 200.74 149.153 199.219 148.007ZM241.156 159.695C239.135 159.695 237.448 159.538 236.094 159.226C234.219 158.83 232.844 158.215 231.969 157.382C230.01 153.236 228.333 148.695 226.938 143.757C225 136.924 223.646 129.872 222.875 122.601C223.812 121.226 225.094 120.163 226.719 119.413C228.344 118.642 230.156 118.257 232.156 118.257C235.156 118.257 237.51 118.83 239.219 119.976C240.948 121.122 241.812 122.757 241.812 124.882C241.667 126.465 241.531 128.788 241.406 131.851C241.302 134.913 241.25 137.684 241.25 140.163C241.25 140.851 241.312 141.392 241.438 141.788C241.583 142.163 241.875 142.351 242.312 142.351C242.479 142.351 242.688 142.32 242.938 142.257C242.917 142.07 242.906 141.757 242.906 141.32V140.226C242.906 137.205 243.01 133.726 243.219 129.788C243.427 125.83 243.677 122.882 243.969 120.945C245.865 119.778 248.094 119.195 250.656 119.195C253.219 119.195 255.281 119.549 256.844 120.257C258.719 121.132 259.708 122.413 259.812 124.101C259.708 126.142 259.51 128.153 259.219 130.132C258.948 132.111 258.615 134.392 258.219 136.976C257.823 139.559 257.573 141.267 257.469 142.101C257.635 142.184 257.854 142.226 258.125 142.226C258.396 142.226 258.646 142.122 258.875 141.913C259.104 141.705 259.292 141.205 259.438 140.413C260.083 137.08 260.615 133.57 261.031 129.882C261.448 126.174 261.719 122.945 261.844 120.195C263.76 118.903 266.406 118.257 269.781 118.257C272.51 118.257 274.688 118.986 276.312 120.445C277.938 121.882 278.75 123.82 278.75 126.257C278.75 127.882 277.979 132.142 276.438 139.038C275.646 142.663 274.885 145.767 274.156 148.351C273.427 150.913 272.833 152.715 272.375 153.757C271.417 155.861 269.979 157.382 268.062 158.32C266.167 159.236 263.74 159.695 260.781 159.695C259.594 159.695 258.219 159.517 256.656 159.163C255.115 158.809 253.938 158.413 253.125 157.976C252.708 157.33 252.24 156.351 251.719 155.038C251.198 153.726 250.875 152.736 250.75 152.07C249.938 152.09 249.531 152.528 249.531 153.382C249.531 154.049 249.854 155.278 250.5 157.07C248.312 158.82 245.198 159.695 241.156 159.695Z" fill="#880061" />
  <path d="M39.1562 59.0369V90.0994C36.8229 91.8494 33.8333 92.7244 30.1875 92.7244C27.375 92.7244 25.1458 92.1514 23.5 91.0056C21.7708 89.8389 20.9062 88.1514 20.9062 85.9431V79.7556H23.125C23.9792 79.7556 24.5104 79.6514 24.7188 79.4431C24.9479 79.2139 25.0625 78.8494 25.0625 78.3494H15.25C15.25 78.8494 15.3438 79.2139 15.5312 79.4431C15.7188 79.6514 16.1667 79.7556 16.875 79.7556H19.25V90.0994C17.6458 91.141 16.125 91.8389 14.6875 92.1931C13.25 92.5473 11.7812 92.7244 10.2812 92.7244C7.46875 92.7244 5.23958 92.1514 3.59375 91.0056C1.86458 89.8389 1 88.1514 1 85.9431V54.8494C2.08333 53.7035 3.41667 52.8285 5 52.2244C6.60417 51.5994 8.27083 51.2869 10 51.2869C12.5208 51.2869 14.6562 51.9119 16.4062 53.1619C18.3021 54.5785 19.25 56.5369 19.25 59.0369V64.5994H23.2188C23.2188 64.0577 23.1146 63.6931 22.9062 63.5056C22.7188 63.2973 22.4062 63.1931 21.9688 63.1931H20.9062V54.8494C21.9896 53.7035 23.3229 52.8285 24.9062 52.2244C26.5104 51.5994 28.1771 51.2869 29.9062 51.2869C32.4271 51.2869 34.5625 51.9119 36.3125 53.1619C38.2083 54.5785 39.1562 56.5369 39.1562 59.0369ZM62.6562 70.5994C62.6562 68.516 62.5625 67.0889 62.375 66.3181C62.1875 65.5264 61.8438 65.1306 61.3438 65.1306C61.0312 65.1306 60.75 65.2348 60.5 65.4431C60.5417 65.8181 60.6042 66.3181 60.6875 66.9431C60.7708 67.5681 60.8125 68.9014 60.8125 70.9431V72.9744C60.8125 74.391 60.7812 75.4223 60.7188 76.0681C60.6562 76.7139 60.6042 77.266 60.5625 77.7244C60.5417 77.9744 60.5208 78.2244 60.5 78.4744C60.75 78.6827 61.0312 78.7869 61.3438 78.7869C61.8438 78.7869 62.1875 78.4014 62.375 77.6306C62.5625 76.8389 62.6562 75.4014 62.6562 73.3181V70.5994ZM61.4062 93.1619C57.6979 93.1619 54.2917 92.4014 51.1875 90.8806C48.1042 89.3389 45.6146 86.9952 43.7188 83.8494C41.8229 80.6827 40.875 76.7348 40.875 72.0056C40.875 65.1514 42.9375 59.7973 47.0625 55.9431C50.7292 52.5473 55.4479 50.8494 61.2188 50.8494C67.4896 50.8494 72.4479 52.7973 76.0938 56.6931C79.7604 60.5681 81.5938 65.6723 81.5938 72.0056C81.5938 79.0473 79.6354 84.4223 75.7188 88.1306C72.1562 91.4848 67.3854 93.1619 61.4062 93.1619ZM90.5625 92.1931C88.25 92.1931 86.4583 91.5785 85.1875 90.3494C83.9375 89.1202 83.3125 87.266 83.3125 84.7869V54.2244C84.4167 53.2869 85.7604 52.5681 87.3438 52.0681C88.9479 51.5473 90.6042 51.2869 92.3125 51.2869C94.8333 51.2869 96.9688 51.9119 98.7188 53.1619C100.615 54.5785 101.562 56.5369 101.562 59.0369V76.1306C100.396 76.2348 99.25 76.5681 98.125 77.1306C97 77.6723 96.4375 78.2348 96.4375 78.8181C96.4375 79.1723 96.6354 79.4744 97.0312 79.7244C99.0938 77.9952 102.156 77.1306 106.219 77.1306H113.625C115 79.5473 115.688 82.016 115.688 84.5369C115.688 85.7869 115.469 87.1723 115.031 88.6931C114.594 90.2139 114.01 91.3806 113.281 92.1931H90.5625ZM123.25 82.6619C123.833 82.6619 124.125 82.3389 124.125 81.6931C119.521 78.6306 116 74.8702 113.562 70.4119C111.146 65.9535 109.792 61.0369 109.5 55.6619C110.438 54.266 111.833 53.1931 113.688 52.4431C115.562 51.6931 117.49 51.3181 119.469 51.3181C122.073 51.3181 124.312 51.8285 126.188 52.8494C127.354 55.9952 128.312 58.9952 129.062 61.8494C128.042 66.3494 127.531 68.5994 127.531 68.5994C127.448 68.9119 127.406 69.2035 127.406 69.4744C127.406 70.1827 127.781 70.5369 128.531 70.5369C128.781 69.7452 129.365 67.3494 130.281 63.3494C130.51 62.3285 130.812 60.9119 131.188 59.0994C131.583 57.266 132.083 55.1098 132.688 52.6306C134.604 51.7139 136.792 51.2556 139.25 51.2556C142.229 51.2556 144.604 51.9848 146.375 53.4431C148.146 54.8806 149.031 56.9639 149.031 59.6931C149.031 63.6931 147.906 67.5889 145.656 71.3806C143.885 74.3806 141.542 77.1827 138.625 79.7869V90.0994C136.896 91.1619 135.344 91.8598 133.969 92.1931C132.594 92.5473 131.146 92.7244 129.625 92.7244C126.75 92.7244 124.49 92.1827 122.844 91.0994C121.198 90.016 120.375 88.4014 120.375 86.2556V80.7556C120.75 81.1306 121.229 81.5473 121.812 82.0056C122.396 82.4431 122.875 82.6619 123.25 82.6619Z" fill="white" />
  <g clip-path="url(#clip0)">
    <path d="M205.347 82.1937C204.763 82.6843 204.688 83.5598 205.18 84.1466C205.613 84.6628 206.348 84.7963 206.931 84.4631C207.015 84.4148 207.107 84.3915 207.196 84.3971C207.209 84.3061 207.248 84.2199 207.31 84.1455C207.737 83.631 207.735 82.8821 207.302 82.3659C206.81 81.779 205.935 81.7008 205.347 82.1937ZM219.157 99.1758C218.997 99.3094 218.77 99.3351 218.583 99.2287L200.133 89.0469C199.978 88.9627 199.88 88.8037 199.869 88.6258C199.532 82.6799 195.545 77.8643 195.505 77.8171C195.323 77.5996 195.353 77.2752 195.567 77.0955L202.028 71.6745C202.242 71.4949 202.564 71.5237 202.749 71.739C202.788 71.7861 206.85 76.5526 212.636 77.913C212.809 77.9551 212.946 78.0813 213.005 78.2464L219.828 98.1839C219.898 98.3889 219.833 98.6085 219.676 98.7399C219.65 98.7618 219.624 98.7789 219.599 98.796C219.515 98.8394 219.423 98.8627 219.334 98.862C219.322 98.9481 219.283 99.0343 219.225 99.1092C219.204 99.1315 219.183 99.1539 219.157 99.1758" fill="#A6A2A8" />
    <path d="M206.822 83.9519C206.773 83.9669 206.722 83.9914 206.676 84.0212C206.312 84.2286 205.844 84.1432 205.572 83.8183C205.262 83.4489 205.309 82.8957 205.677 82.5869C206.048 82.2759 206.601 82.3253 206.911 82.6947C207.183 83.0196 207.186 83.4949 206.919 83.8175C206.881 83.8578 206.848 83.9034 206.822 83.9519ZM201.698 71.2818L195.237 76.7028C194.807 77.0642 194.749 77.711 195.114 78.1459C195.151 78.1904 199.034 82.8973 199.358 88.6531C199.378 89.0064 199.579 89.3248 199.889 89.4979L218.338 99.6797C218.713 99.8877 219.168 99.8362 219.486 99.569C219.536 99.5274 219.581 99.4853 219.622 99.4332C219.654 99.3925 219.682 99.3514 219.707 99.3076C219.758 99.2879 219.803 99.2677 219.849 99.2427C219.907 99.2115 219.956 99.1747 220.006 99.1331C220.324 98.8659 220.454 98.4267 220.314 98.0216L213.489 78.0815C213.374 77.749 213.095 77.4962 212.751 77.4146C207.118 76.0921 203.178 71.4552 203.14 71.4107C202.776 70.9758 202.129 70.9204 201.698 71.2818ZM202.357 72.0678C202.357 72.0678 206.49 76.9933 212.52 78.4119L219.344 98.3493L207.703 84.4765C208.278 83.7839 208.296 82.7555 207.694 82.0376C207.019 81.2333 205.822 81.1263 205.018 81.8009C204.216 82.4733 204.114 83.6711 204.789 84.4754C205.391 85.1933 206.404 85.3566 207.189 84.908L218.829 98.7808L200.38 88.599C200.03 82.4144 195.897 77.4888 195.897 77.4888L202.357 72.0678Z" fill="#383385" />
    <path d="M202.357 72.0675L201.342 72.9195C203.093 74.4865 206.085 76.6902 209.804 77.5654L215.246 93.4654L219.344 98.3491L212.52 78.4116C206.49 76.993 202.357 72.0675 202.357 72.0675" fill="#787478" />
    <path d="M200.253 76.128C198.199 77.8518 195.687 79.2003 192.622 76.1733C192.616 76.1654 191.879 75.4355 190.676 74.1453C190.061 73.4869 189.326 72.6845 188.512 71.7732C187.826 71.0091 187.039 70.1075 186.17 69.0992L185.833 68.708L195.455 60.6345L195.784 61.0323C196.611 62.0441 197.36 62.9738 198.011 63.8027C198.771 64.7673 199.427 65.6281 199.969 66.343C201.033 67.7541 201.621 68.6088 201.628 68.6167C204.412 72.634 202.203 74.487 200.256 76.1258L200.253 76.128Z" fill="#EADA46" />
    <path d="M195.522 59.9086L185.109 68.6458L185.783 69.433C186.654 70.4439 187.446 71.346 188.134 72.1175C188.947 73.0287 189.686 73.829 190.3 74.4922C191.514 75.7907 192.233 76.5044 192.264 76.5363C195.642 79.8724 198.484 78.282 200.583 76.521C202.596 74.8275 205.097 72.7243 202.05 68.3248C202.024 68.2885 201.446 67.4565 200.38 66.038C199.834 65.3179 199.174 64.4519 198.414 63.4872C197.76 62.6557 197.009 61.7234 196.18 60.709L195.522 59.9086ZM195.391 61.3582C196.202 62.3517 196.951 63.2814 197.611 64.1207C198.373 65.088 199.027 65.9462 199.562 66.6532C200.631 68.0695 201.208 68.9063 201.208 68.9063C203.682 72.4743 202.017 73.9736 199.926 75.7328L199.923 75.735C197.436 77.8224 195.431 78.2322 192.983 75.808C192.983 75.808 192.259 75.0938 191.047 73.798C190.444 73.1479 189.715 72.3533 188.895 71.4342C188.183 70.6387 187.397 69.7396 186.56 68.7681L195.391 61.3582" fill="#383385" />
    <path d="M192.66 63.6495C192.866 63.9102 193.067 64.1656 193.264 64.4111C194.026 65.3783 194.68 66.2365 195.215 66.9435C196.281 68.362 196.859 69.1989 196.859 69.1989C199.332 72.7668 197.67 74.2639 195.577 76.0205C195.164 76.3666 194.768 76.6632 194.379 76.9096C196.24 78.0041 197.926 77.4107 199.926 75.733C202.017 73.9737 203.682 72.4744 201.208 68.9065C201.208 68.9065 200.631 68.0696 199.562 66.6534C199.027 65.9463 198.373 65.0882 197.611 64.1209C196.951 63.2815 196.202 62.3518 195.391 61.3584L192.66 63.6495" fill="#E7AA32" />
    <path d="M186.503 69.4852L185.779 68.6425C183.678 66.1863 181.398 63.4064 179.189 60.5989C177.905 58.9621 176.734 57.4446 175.604 55.9549C174.566 54.5849 173.448 53.0891 171.976 51.1011C170.628 49.2769 169.504 47.7466 168.395 46.2079C167.162 44.5103 165.975 42.8411 164.976 41.4286C163.837 39.8218 162.746 38.2459 161.827 36.923C161.031 35.7564 159.995 34.246 159.052 32.8361C157.405 30.3907 156.078 28.3328 155.001 26.6404C154.053 25.1401 153.513 24.2524 153.509 24.242C152.674 22.8602 152.733 21.3561 153.652 20.5851C153.808 20.4537 153.986 20.3479 154.183 20.2698C155.101 19.9059 156.289 20.2136 157.28 21.077C157.29 21.083 158.07 21.7692 159.382 22.9618C160.755 24.2216 162.609 25.9328 164.784 28.031C165.744 28.9529 166.833 30.0124 168.322 31.4687C169.488 32.6246 170.843 33.9696 172.217 35.3575C173.443 36.5964 174.89 38.0611 176.33 39.5542C177.773 41.0355 179.198 42.5321 180.525 43.9279C182.18 45.6729 183.497 47.0774 184.675 48.3436C185.939 49.7071 187.27 51.1662 188.626 52.6809C191.007 55.3439 193.349 58.0712 195.4 60.569L196.085 61.4008L195.72 61.7512L186.503 69.4852" fill="#F35FA8" />
    <path d="M153.322 20.1921C152.205 21.1295 152.103 22.9013 153.072 24.5059C153.093 24.542 153.617 25.4102 154.57 26.9114C155.651 28.608 156.977 30.6709 158.63 33.1232C159.57 34.5305 160.606 36.0456 161.405 37.21C162.326 38.5404 163.417 40.1115 164.558 41.7257C165.557 43.1382 166.746 44.8101 167.981 46.5103C169.088 48.0463 170.214 49.5793 171.564 51.4061C173.037 53.3941 174.159 54.8903 175.195 56.2625C176.327 57.7548 177.502 59.2776 178.787 60.9143C181 63.7271 183.284 66.5122 185.391 68.9763C185.526 69.1313 185.654 69.2784 185.786 69.4356L186.447 70.2024L196.823 61.4959L196.18 60.709L196.154 60.6775C196.036 60.5312 195.917 60.3897 195.794 60.243C193.738 57.74 191.392 55.0074 189.006 52.3392C187.648 50.822 186.317 49.3628 185.049 47.994C183.871 46.7279 182.552 45.3208 180.896 43.5757C179.567 42.1773 178.138 40.6803 176.695 39.1942C175.255 37.7059 173.808 36.2364 172.58 34.9949C171.206 33.607 169.846 32.2616 168.682 31.1082C167.189 29.6467 166.1 28.5824 165.135 27.6601C162.96 25.5613 161.103 23.8463 159.729 22.5854C158.412 21.3866 157.648 20.7199 157.616 20.6926C156.478 19.7025 155.09 19.3571 153.99 19.7954C153.745 19.8909 153.52 20.0256 153.322 20.1921V20.1921ZM153.981 20.9781C154.094 20.8839 154.224 20.8061 154.37 20.7475C155.131 20.4446 156.136 20.7574 156.946 21.4628C156.946 21.4628 157.716 22.1375 159.038 23.3413C160.354 24.5496 162.229 26.2797 164.43 28.3992C165.531 29.4574 166.716 30.6103 167.963 31.8365C169.205 33.0623 170.514 34.3619 171.854 35.7153C173.194 37.0686 174.574 38.4691 175.96 39.9089C177.354 41.3422 178.757 42.8078 180.155 44.2778C181.548 45.7521 182.941 47.2265 184.298 48.6904C185.656 50.1544 186.976 51.6052 188.245 53.0225C190.777 55.854 193.078 58.5486 195.006 60.8949C195.138 61.0521 195.263 61.2014 195.391 61.3582L186.56 68.768C186.43 68.6135 186.302 68.4663 186.168 68.3113C184.195 66.0023 181.941 63.2683 179.592 60.2834C178.416 58.7873 177.217 57.2357 176.011 55.6447C174.805 54.0537 173.595 52.426 172.385 50.7984C171.18 49.1663 169.98 47.5298 168.808 45.9104C167.633 44.2931 166.494 42.6911 165.394 41.1363C164.294 39.5815 163.241 38.0672 162.249 36.6311C161.261 35.188 160.329 33.8227 159.478 32.5543C157.773 30.0186 156.392 27.8745 155.433 26.3662C154.477 24.8557 153.946 23.9794 153.946 23.9794C153.236 22.8038 153.279 21.5673 153.981 20.9781" fill="#383385" />
    <path d="M188.245 53.0226C186.976 51.6053 185.656 50.1544 184.299 48.6905C182.941 47.2266 181.549 45.7522 180.156 44.2779C178.758 42.8079 177.354 41.3423 175.96 39.909C174.574 38.4692 173.195 37.0687 171.854 35.7153C170.514 34.362 169.206 33.0624 167.964 31.8366C166.717 30.6103 165.531 29.4575 164.43 28.3993C162.229 26.2798 160.355 24.5496 159.038 23.3414C157.717 22.1376 156.946 21.4628 156.946 21.4628C156.136 20.7574 155.131 20.4447 154.371 20.7476C153.846 20.9544 153.533 21.4192 153.454 21.9981C154.763 23.1982 156.575 24.8748 158.697 26.9154C159.798 27.9741 160.981 29.1287 162.23 30.3524C163.472 31.5831 164.781 32.8779 166.118 34.2334C167.461 35.5893 168.84 36.9898 170.229 38.4275C171.621 39.8581 173.021 41.3259 174.422 42.7985C175.815 44.2681 177.207 45.7473 178.563 47.2086C179.923 48.6703 181.244 50.1238 182.512 51.5385C185.041 54.3722 187.344 57.0646 189.273 59.4108C189.405 59.568 189.528 59.7195 189.655 59.8763L183.455 65.0783C184.401 66.2268 185.314 67.3092 186.168 68.3114C186.303 68.4664 186.43 68.6135 186.56 68.7681L195.391 61.3583C195.264 61.2015 195.138 61.0522 195.007 60.895C193.078 58.5487 190.777 55.8541 188.245 53.0226" fill="#EE2891" />
    <path d="M189.009 96.1935C187.244 97.6742 186.594 100.207 187.584 102.421C188.779 105.097 191.924 106.311 194.596 105.127C197.266 103.94 198.468 100.793 197.273 98.117C196.077 95.4412 192.932 94.2272 190.26 95.4159C189.799 95.6195 189.379 95.8825 189.009 96.1935V96.1935ZM196.505 105.132C196.064 105.503 195.567 105.817 195.015 106.061C191.827 107.477 188.077 106.03 186.647 102.836C185.222 99.6432 186.655 95.8911 189.841 94.4769C191.385 93.7932 193.104 93.7481 194.685 94.3595C196.266 94.9661 197.516 96.1539 198.207 97.7037C199.386 100.344 198.611 103.365 196.505 105.132" fill="#383385" />
    <path d="M201.424 103.313C200.628 103.981 200.333 105.126 200.778 106.128C201.322 107.337 202.741 107.883 203.947 107.349C205.156 106.812 205.696 105.394 205.156 104.182C204.896 103.597 204.421 103.147 203.822 102.917C203.224 102.687 202.571 102.703 201.987 102.961C201.78 103.054 201.591 103.173 201.424 103.313V103.313ZM205.17 107.783C204.932 107.982 204.663 108.154 204.366 108.288C202.643 109.05 200.617 108.268 199.846 106.544C199.076 104.819 199.845 102.789 201.571 102.025C202.404 101.656 203.334 101.63 204.19 101.961C205.041 102.292 205.718 102.934 206.09 103.769C206.731 105.196 206.308 106.828 205.17 107.783Z" fill="#383385" />
    <path d="M141.591 45.5309C139.571 47.2262 139.087 50.2178 140.567 52.49C141.342 53.6789 142.534 54.5004 143.921 54.7964C145.308 55.0924 146.726 54.8313 147.911 54.0599C150.361 52.4684 151.053 49.1736 149.456 46.7188C148.681 45.5251 147.491 44.7063 146.104 44.4102C144.716 44.1127 143.298 44.374 142.112 45.1446C141.928 45.2641 141.753 45.3951 141.591 45.5309V45.5309ZM149.093 54.4612C148.898 54.6255 148.693 54.7793 148.473 54.9195C147.056 55.84 145.365 56.1518 143.712 55.798C142.053 55.4438 140.635 54.4688 139.712 53.0462C137.803 50.1135 138.626 46.1847 141.552 44.2858C142.968 43.3659 144.658 43.0531 146.313 43.4086C147.967 43.7624 149.388 44.74 150.313 46.1604C152.077 48.8725 151.503 52.4395 149.093 54.4612" fill="#383385" />
    <path d="M144.512 31.6239C144.105 31.9655 143.824 32.4315 143.715 32.9588C143.583 33.5861 143.702 34.2269 144.052 34.7654C144.404 35.3017 144.943 35.6731 145.567 35.8082C146.195 35.9408 146.835 35.824 147.37 35.4758C147.908 35.1257 148.276 34.5885 148.406 33.9637C148.538 33.3364 148.418 32.6956 148.069 32.1571C147.719 31.6186 147.181 31.2483 146.554 31.1154C145.926 30.9817 145.286 31.0995 144.751 31.4477C144.668 31.5021 144.588 31.5603 144.512 31.6239V31.6239ZM148.269 36.0857C148.162 36.1755 148.049 36.2579 147.931 36.3346C147.165 36.8321 146.252 37.0004 145.357 36.809C144.463 36.6178 143.695 36.09 143.197 35.3208C142.696 34.5546 142.524 33.6388 142.712 32.7449C142.901 31.851 143.424 31.0856 144.19 30.5878C144.955 30.0904 145.869 29.9231 146.764 30.1145C147.657 30.3046 148.426 30.8335 148.926 31.5995C149.424 32.3679 149.597 33.2837 149.408 34.1776C149.25 34.9329 148.851 35.5972 148.269 36.0857" fill="#383385" />
    <path d="M158.656 53.3573C158.249 53.699 157.969 54.166 157.861 54.6943C157.727 55.3198 157.847 55.9606 158.198 56.5009C158.549 57.0364 159.087 57.4068 159.713 57.5427C160.341 57.6763 160.979 57.5564 161.515 57.2093C162.053 56.8599 162.419 56.3255 162.55 55.6974C162.684 55.0719 162.562 54.4285 162.213 53.8908C161.864 53.3531 161.324 52.9849 160.698 52.8491C160.07 52.7154 159.43 52.8327 158.894 53.1798C158.812 53.2355 158.732 53.2938 158.656 53.3573V53.3573ZM162.415 57.8156C162.308 57.9054 162.194 57.9922 162.076 58.0689C161.309 58.565 160.398 58.7357 159.503 58.5443C158.609 58.3529 157.84 57.8237 157.341 57.0545C156.842 56.2901 156.669 55.373 156.857 54.4786C157.045 53.5841 157.571 52.8168 158.335 52.3229C159.1 51.8241 160.013 51.656 160.908 51.8475C161.802 52.0389 162.571 52.568 163.07 53.3324C163.569 54.1016 163.74 55.0161 163.554 55.9131C163.395 56.6672 162.994 57.3294 162.415 57.8156" fill="#383385" />
    <path d="M203.579 41.245C203.538 41.28 203.498 41.3177 203.454 41.3549C201.276 43.3028 201.092 46.6672 203.047 48.8534C205.001 51.0396 208.366 51.2433 210.539 49.2902C212.719 47.3449 212.903 43.9805 210.951 41.7922C209.034 39.6457 205.759 39.416 203.579 41.245V41.245ZM211.076 50.1839C208.473 52.3677 204.569 52.094 202.283 49.534C199.953 46.9265 200.173 42.911 202.773 40.5913C205.365 38.2733 209.382 38.5013 211.712 41.1089C214.042 43.7212 213.824 47.7345 211.225 50.0543C211.175 50.1007 211.125 50.1423 211.076 50.1839" fill="#383385" />
    <path d="M189.6 40.26L189.54 40.3104C189.065 40.7357 188.782 41.3211 188.746 41.9626C188.713 42.6019 188.927 43.2172 189.356 43.6966C189.783 44.1734 190.371 44.4611 191.01 44.4964C191.651 44.5343 192.261 44.3221 192.741 43.8924C193.727 43.016 193.809 41.4964 192.927 40.5088C192.06 39.5395 190.584 39.4342 189.6 40.26V40.26ZM193.343 44.7314C192.674 45.2921 191.832 45.5707 190.952 45.5187C190.04 45.4664 189.203 45.0619 188.593 44.3773C187.985 43.6953 187.675 42.8169 187.727 41.903C187.773 40.9887 188.175 40.152 188.856 39.5441C190.277 38.2848 192.43 38.4165 193.688 39.8255C194.948 41.2371 194.827 43.4051 193.424 44.6587C193.4 44.6832 193.371 44.7073 193.343 44.7314" fill="#383385" />
    <path d="M206.87 59.6018C206.849 59.6193 206.833 59.6373 206.812 59.6548C206.332 60.0797 206.055 60.6656 206.019 61.3071C205.984 61.9437 206.2 62.5617 206.629 63.0411C207.053 63.5201 207.642 63.8029 208.283 63.8408C208.922 63.8809 209.533 63.6666 210.011 63.2391C210.489 62.8116 210.771 62.2261 210.807 61.5846C210.84 60.9453 210.626 60.33 210.197 59.8506C209.77 59.3738 209.184 59.0888 208.543 59.0509C207.928 59.0129 207.337 59.2097 206.87 59.6018ZM210.615 64.0759C209.947 64.6366 209.104 64.9151 208.224 64.8632C207.313 64.8108 206.476 64.4064 205.866 63.7218C205.255 63.0371 204.945 62.1588 204.994 61.247C205.046 60.3331 205.447 59.4965 206.129 58.8885C206.808 58.2876 207.688 57.9735 208.599 58.0259C209.51 58.083 210.35 58.4853 210.96 59.1699C211.57 59.8546 211.88 60.7329 211.829 61.6468C211.78 62.5586 211.376 63.3974 210.697 64.0031C210.668 64.0272 210.644 64.0518 210.615 64.0759" fill="#383385" />
  </g>
  <defs>
    <clipPath id="clip0">
      <rect width="63.1415" height="103.322" fill="white" transform="translate(129 40.5867) rotate(-40)" />
    </clipPath>
  </defs>
</svg>
