<?xml version="1.0" encoding="utf-8"?>
<svg xmlns="http://www.w3.org/2000/svg" xmlns:xlink="http://www.w3.org/1999/xlink" style="margin: auto; background: none; display: block; shape-rendering: auto;" width="200px" height="200px" viewBox="0 0 100 100" preserveAspectRatio="xMidYMid">
<g transform="rotate(0 50 50)">
  <rect x="38.5" y="22.5" rx="11.5" ry="2.5" width="23" height="5" fill="#880061">
    <animate attributeName="opacity" values="1;0" keyTimes="0;1" dur="1s" begin="-0.9795918367346939s" repeatCount="indefinite"></animate>
  </rect>
</g><g transform="rotate(7.346938775510204 50 50)">
  <rect x="38.5" y="22.5" rx="11.5" ry="2.5" width="23" height="5" fill="#880061">
    <animate attributeName="opacity" values="1;0" keyTimes="0;1" dur="1s" begin="-0.9591836734693877s" repeatCount="indefinite"></animate>
  </rect>
</g><g transform="rotate(14.693877551020408 50 50)">
  <rect x="38.5" y="22.5" rx="11.5" ry="2.5" width="23" height="5" fill="#880061">
    <animate attributeName="opacity" values="1;0" keyTimes="0;1" dur="1s" begin="-0.9387755102040817s" repeatCount="indefinite"></animate>
  </rect>
</g><g transform="rotate(22.040816326530614 50 50)">
  <rect x="38.5" y="22.5" rx="11.5" ry="2.5" width="23" height="5" fill="#880061">
    <animate attributeName="opacity" values="1;0" keyTimes="0;1" dur="1s" begin="-0.9183673469387755s" repeatCount="indefinite"></animate>
  </rect>
</g><g transform="rotate(29.387755102040817 50 50)">
  <rect x="38.5" y="22.5" rx="11.5" ry="2.5" width="23" height="5" fill="#880061">
    <animate attributeName="opacity" values="1;0" keyTimes="0;1" dur="1s" begin="-0.8979591836734694s" repeatCount="indefinite"></animate>
  </rect>
</g><g transform="rotate(36.734693877551024 50 50)">
  <rect x="38.5" y="22.5" rx="11.5" ry="2.5" width="23" height="5" fill="#880061">
    <animate attributeName="opacity" values="1;0" keyTimes="0;1" dur="1s" begin="-0.8775510204081632s" repeatCount="indefinite"></animate>
  </rect>
</g><g transform="rotate(44.08163265306123 50 50)">
  <rect x="38.5" y="22.5" rx="11.5" ry="2.5" width="23" height="5" fill="#880061">
    <animate attributeName="opacity" values="1;0" keyTimes="0;1" dur="1s" begin="-0.8571428571428571s" repeatCount="indefinite"></animate>
  </rect>
</g><g transform="rotate(51.42857142857143 50 50)">
  <rect x="38.5" y="22.5" rx="11.5" ry="2.5" width="23" height="5" fill="#880061">
    <animate attributeName="opacity" values="1;0" keyTimes="0;1" dur="1s" begin="-0.8367346938775511s" repeatCount="indefinite"></animate>
  </rect>
</g><g transform="rotate(58.775510204081634 50 50)">
  <rect x="38.5" y="22.5" rx="11.5" ry="2.5" width="23" height="5" fill="#880061">
    <animate attributeName="opacity" values="1;0" keyTimes="0;1" dur="1s" begin="-0.8163265306122449s" repeatCount="indefinite"></animate>
  </rect>
</g><g transform="rotate(66.12244897959184 50 50)">
  <rect x="38.5" y="22.5" rx="11.5" ry="2.5" width="23" height="5" fill="#880061">
    <animate attributeName="opacity" values="1;0" keyTimes="0;1" dur="1s" begin="-0.7959183673469388s" repeatCount="indefinite"></animate>
  </rect>
</g><g transform="rotate(73.46938775510205 50 50)">
  <rect x="38.5" y="22.5" rx="11.5" ry="2.5" width="23" height="5" fill="#880061">
    <animate attributeName="opacity" values="1;0" keyTimes="0;1" dur="1s" begin="-0.7755102040816326s" repeatCount="indefinite"></animate>
  </rect>
</g><g transform="rotate(80.81632653061224 50 50)">
  <rect x="38.5" y="22.5" rx="11.5" ry="2.5" width="23" height="5" fill="#880061">
    <animate attributeName="opacity" values="1;0" keyTimes="0;1" dur="1s" begin="-0.7551020408163265s" repeatCount="indefinite"></animate>
  </rect>
</g><g transform="rotate(88.16326530612245 50 50)">
  <rect x="38.5" y="22.5" rx="11.5" ry="2.5" width="23" height="5" fill="#880061">
    <animate attributeName="opacity" values="1;0" keyTimes="0;1" dur="1s" begin="-0.7346938775510204s" repeatCount="indefinite"></animate>
  </rect>
</g><g transform="rotate(95.51020408163265 50 50)">
  <rect x="38.5" y="22.5" rx="11.5" ry="2.5" width="23" height="5" fill="#880061">
    <animate attributeName="opacity" values="1;0" keyTimes="0;1" dur="1s" begin="-0.7142857142857143s" repeatCount="indefinite"></animate>
  </rect>
</g><g transform="rotate(102.85714285714286 50 50)">
  <rect x="38.5" y="22.5" rx="11.5" ry="2.5" width="23" height="5" fill="#880061">
    <animate attributeName="opacity" values="1;0" keyTimes="0;1" dur="1s" begin="-0.6938775510204082s" repeatCount="indefinite"></animate>
  </rect>
</g><g transform="rotate(110.20408163265306 50 50)">
  <rect x="38.5" y="22.5" rx="11.5" ry="2.5" width="23" height="5" fill="#880061">
    <animate attributeName="opacity" values="1;0" keyTimes="0;1" dur="1s" begin="-0.673469387755102s" repeatCount="indefinite"></animate>
  </rect>
</g><g transform="rotate(117.55102040816327 50 50)">
  <rect x="38.5" y="22.5" rx="11.5" ry="2.5" width="23" height="5" fill="#880061">
    <animate attributeName="opacity" values="1;0" keyTimes="0;1" dur="1s" begin="-0.6530612244897959s" repeatCount="indefinite"></animate>
  </rect>
</g><g transform="rotate(124.89795918367346 50 50)">
  <rect x="38.5" y="22.5" rx="11.5" ry="2.5" width="23" height="5" fill="#880061">
    <animate attributeName="opacity" values="1;0" keyTimes="0;1" dur="1s" begin="-0.6326530612244898s" repeatCount="indefinite"></animate>
  </rect>
</g><g transform="rotate(132.24489795918367 50 50)">
  <rect x="38.5" y="22.5" rx="11.5" ry="2.5" width="23" height="5" fill="#880061">
    <animate attributeName="opacity" values="1;0" keyTimes="0;1" dur="1s" begin="-0.6122448979591837s" repeatCount="indefinite"></animate>
  </rect>
</g><g transform="rotate(139.59183673469389 50 50)">
  <rect x="38.5" y="22.5" rx="11.5" ry="2.5" width="23" height="5" fill="#880061">
    <animate attributeName="opacity" values="1;0" keyTimes="0;1" dur="1s" begin="-0.5918367346938775s" repeatCount="indefinite"></animate>
  </rect>
</g><g transform="rotate(146.9387755102041 50 50)">
  <rect x="38.5" y="22.5" rx="11.5" ry="2.5" width="23" height="5" fill="#880061">
    <animate attributeName="opacity" values="1;0" keyTimes="0;1" dur="1s" begin="-0.5714285714285714s" repeatCount="indefinite"></animate>
  </rect>
</g><g transform="rotate(154.28571428571428 50 50)">
  <rect x="38.5" y="22.5" rx="11.5" ry="2.5" width="23" height="5" fill="#880061">
    <animate attributeName="opacity" values="1;0" keyTimes="0;1" dur="1s" begin="-0.5510204081632653s" repeatCount="indefinite"></animate>
  </rect>
</g><g transform="rotate(161.6326530612245 50 50)">
  <rect x="38.5" y="22.5" rx="11.5" ry="2.5" width="23" height="5" fill="#880061">
    <animate attributeName="opacity" values="1;0" keyTimes="0;1" dur="1s" begin="-0.5306122448979592s" repeatCount="indefinite"></animate>
  </rect>
</g><g transform="rotate(168.9795918367347 50 50)">
  <rect x="38.5" y="22.5" rx="11.5" ry="2.5" width="23" height="5" fill="#880061">
    <animate attributeName="opacity" values="1;0" keyTimes="0;1" dur="1s" begin="-0.5102040816326531s" repeatCount="indefinite"></animate>
  </rect>
</g><g transform="rotate(176.3265306122449 50 50)">
  <rect x="38.5" y="22.5" rx="11.5" ry="2.5" width="23" height="5" fill="#880061">
    <animate attributeName="opacity" values="1;0" keyTimes="0;1" dur="1s" begin="-0.4897959183673469s" repeatCount="indefinite"></animate>
  </rect>
</g><g transform="rotate(183.6734693877551 50 50)">
  <rect x="38.5" y="22.5" rx="11.5" ry="2.5" width="23" height="5" fill="#880061">
    <animate attributeName="opacity" values="1;0" keyTimes="0;1" dur="1s" begin="-0.46938775510204084s" repeatCount="indefinite"></animate>
  </rect>
</g><g transform="rotate(191.0204081632653 50 50)">
  <rect x="38.5" y="22.5" rx="11.5" ry="2.5" width="23" height="5" fill="#880061">
    <animate attributeName="opacity" values="1;0" keyTimes="0;1" dur="1s" begin="-0.4489795918367347s" repeatCount="indefinite"></animate>
  </rect>
</g><g transform="rotate(198.3673469387755 50 50)">
  <rect x="38.5" y="22.5" rx="11.5" ry="2.5" width="23" height="5" fill="#880061">
    <animate attributeName="opacity" values="1;0" keyTimes="0;1" dur="1s" begin="-0.42857142857142855s" repeatCount="indefinite"></animate>
  </rect>
</g><g transform="rotate(205.71428571428572 50 50)">
  <rect x="38.5" y="22.5" rx="11.5" ry="2.5" width="23" height="5" fill="#880061">
    <animate attributeName="opacity" values="1;0" keyTimes="0;1" dur="1s" begin="-0.40816326530612246s" repeatCount="indefinite"></animate>
  </rect>
</g><g transform="rotate(213.0612244897959 50 50)">
  <rect x="38.5" y="22.5" rx="11.5" ry="2.5" width="23" height="5" fill="#880061">
    <animate attributeName="opacity" values="1;0" keyTimes="0;1" dur="1s" begin="-0.3877551020408163s" repeatCount="indefinite"></animate>
  </rect>
</g><g transform="rotate(220.40816326530611 50 50)">
  <rect x="38.5" y="22.5" rx="11.5" ry="2.5" width="23" height="5" fill="#880061">
    <animate attributeName="opacity" values="1;0" keyTimes="0;1" dur="1s" begin="-0.3673469387755102s" repeatCount="indefinite"></animate>
  </rect>
</g><g transform="rotate(227.75510204081633 50 50)">
  <rect x="38.5" y="22.5" rx="11.5" ry="2.5" width="23" height="5" fill="#880061">
    <animate attributeName="opacity" values="1;0" keyTimes="0;1" dur="1s" begin="-0.3469387755102041s" repeatCount="indefinite"></animate>
  </rect>
</g><g transform="rotate(235.10204081632654 50 50)">
  <rect x="38.5" y="22.5" rx="11.5" ry="2.5" width="23" height="5" fill="#880061">
    <animate attributeName="opacity" values="1;0" keyTimes="0;1" dur="1s" begin="-0.32653061224489793s" repeatCount="indefinite"></animate>
  </rect>
</g><g transform="rotate(242.44897959183675 50 50)">
  <rect x="38.5" y="22.5" rx="11.5" ry="2.5" width="23" height="5" fill="#880061">
    <animate attributeName="opacity" values="1;0" keyTimes="0;1" dur="1s" begin="-0.30612244897959184s" repeatCount="indefinite"></animate>
  </rect>
</g><g transform="rotate(249.79591836734693 50 50)">
  <rect x="38.5" y="22.5" rx="11.5" ry="2.5" width="23" height="5" fill="#880061">
    <animate attributeName="opacity" values="1;0" keyTimes="0;1" dur="1s" begin="-0.2857142857142857s" repeatCount="indefinite"></animate>
  </rect>
</g><g transform="rotate(257.14285714285717 50 50)">
  <rect x="38.5" y="22.5" rx="11.5" ry="2.5" width="23" height="5" fill="#880061">
    <animate attributeName="opacity" values="1;0" keyTimes="0;1" dur="1s" begin="-0.2653061224489796s" repeatCount="indefinite"></animate>
  </rect>
</g><g transform="rotate(264.48979591836735 50 50)">
  <rect x="38.5" y="22.5" rx="11.5" ry="2.5" width="23" height="5" fill="#880061">
    <animate attributeName="opacity" values="1;0" keyTimes="0;1" dur="1s" begin="-0.24489795918367346s" repeatCount="indefinite"></animate>
  </rect>
</g><g transform="rotate(271.83673469387753 50 50)">
  <rect x="38.5" y="22.5" rx="11.5" ry="2.5" width="23" height="5" fill="#880061">
    <animate attributeName="opacity" values="1;0" keyTimes="0;1" dur="1s" begin="-0.22448979591836735s" repeatCount="indefinite"></animate>
  </rect>
</g><g transform="rotate(279.18367346938777 50 50)">
  <rect x="38.5" y="22.5" rx="11.5" ry="2.5" width="23" height="5" fill="#880061">
    <animate attributeName="opacity" values="1;0" keyTimes="0;1" dur="1s" begin="-0.20408163265306123s" repeatCount="indefinite"></animate>
  </rect>
</g><g transform="rotate(286.53061224489795 50 50)">
  <rect x="38.5" y="22.5" rx="11.5" ry="2.5" width="23" height="5" fill="#880061">
    <animate attributeName="opacity" values="1;0" keyTimes="0;1" dur="1s" begin="-0.1836734693877551s" repeatCount="indefinite"></animate>
  </rect>
</g><g transform="rotate(293.8775510204082 50 50)">
  <rect x="38.5" y="22.5" rx="11.5" ry="2.5" width="23" height="5" fill="#880061">
    <animate attributeName="opacity" values="1;0" keyTimes="0;1" dur="1s" begin="-0.16326530612244897s" repeatCount="indefinite"></animate>
  </rect>
</g><g transform="rotate(301.2244897959184 50 50)">
  <rect x="38.5" y="22.5" rx="11.5" ry="2.5" width="23" height="5" fill="#880061">
    <animate attributeName="opacity" values="1;0" keyTimes="0;1" dur="1s" begin="-0.14285714285714285s" repeatCount="indefinite"></animate>
  </rect>
</g><g transform="rotate(308.57142857142856 50 50)">
  <rect x="38.5" y="22.5" rx="11.5" ry="2.5" width="23" height="5" fill="#880061">
    <animate attributeName="opacity" values="1;0" keyTimes="0;1" dur="1s" begin="-0.12244897959183673s" repeatCount="indefinite"></animate>
  </rect>
</g><g transform="rotate(315.9183673469388 50 50)">
  <rect x="38.5" y="22.5" rx="11.5" ry="2.5" width="23" height="5" fill="#880061">
    <animate attributeName="opacity" values="1;0" keyTimes="0;1" dur="1s" begin="-0.10204081632653061s" repeatCount="indefinite"></animate>
  </rect>
</g><g transform="rotate(323.265306122449 50 50)">
  <rect x="38.5" y="22.5" rx="11.5" ry="2.5" width="23" height="5" fill="#880061">
    <animate attributeName="opacity" values="1;0" keyTimes="0;1" dur="1s" begin="-0.08163265306122448s" repeatCount="indefinite"></animate>
  </rect>
</g><g transform="rotate(330.61224489795916 50 50)">
  <rect x="38.5" y="22.5" rx="11.5" ry="2.5" width="23" height="5" fill="#880061">
    <animate attributeName="opacity" values="1;0" keyTimes="0;1" dur="1s" begin="-0.061224489795918366s" repeatCount="indefinite"></animate>
  </rect>
</g><g transform="rotate(337.9591836734694 50 50)">
  <rect x="38.5" y="22.5" rx="11.5" ry="2.5" width="23" height="5" fill="#880061">
    <animate attributeName="opacity" values="1;0" keyTimes="0;1" dur="1s" begin="-0.04081632653061224s" repeatCount="indefinite"></animate>
  </rect>
</g><g transform="rotate(345.3061224489796 50 50)">
  <rect x="38.5" y="22.5" rx="11.5" ry="2.5" width="23" height="5" fill="#880061">
    <animate attributeName="opacity" values="1;0" keyTimes="0;1" dur="1s" begin="-0.02040816326530612s" repeatCount="indefinite"></animate>
  </rect>
</g><g transform="rotate(352.6530612244898 50 50)">
  <rect x="38.5" y="22.5" rx="11.5" ry="2.5" width="23" height="5" fill="#880061">
    <animate attributeName="opacity" values="1;0" keyTimes="0;1" dur="1s" begin="0s" repeatCount="indefinite"></animate>
  </rect>
</g>
<!-- [ldio] generated by https://loading.io/ --></svg>